<svg width="41" height="57" viewBox="0 0 41 57" fill="none" xmlns="http://www.w3.org/2000/svg">
<g filter="url(#filter0_d_233_518)">
<path d="M19.8042 50.3651C19.7869 50.3665 19.7694 50.3678 19.7521 50.3692C16.9387 50.5868 14.0441 50.1134 11.5458 48.8027C6.52711 46.1696 3.66533 40.2515 4.03132 34.6006C4.4462 28.1961 8.50102 22.6805 13.7182 19.2102C17.0334 17.0051 20.5606 15.2257 24.2394 13.7147C18.8049 15.9468 13.9693 19.6158 10.3586 24.2467C8.67498 26.4061 7.24379 28.7932 6.41681 31.4026C5.58983 34.0121 5.3909 36.859 6.13428 39.4934C7.31787 43.688 10.8687 47.0046 14.9938 48.4229C19.119 49.8412 23.7244 49.4928 27.8214 47.9955C25.3171 49.2563 22.5993 50.1406 19.8043 50.3651H19.8042Z" fill="white"/>
<path d="M19.8042 50.3651C19.7869 50.3665 19.7694 50.3678 19.7521 50.3692C16.9387 50.5868 14.0441 50.1134 11.5458 48.8027C6.52711 46.1696 3.66533 40.2515 4.03132 34.6006C4.4462 28.1961 8.50102 22.6805 13.7182 19.2102C17.0334 17.0051 20.5606 15.2257 24.2394 13.7147C18.8049 15.9468 13.9693 19.6158 10.3586 24.2467C8.67498 26.4061 7.24379 28.7932 6.41681 31.4026C5.58983 34.0121 5.3909 36.859 6.13428 39.4934C7.31787 43.688 10.8687 47.0046 14.9938 48.4229C19.119 49.8412 23.7244 49.4928 27.8214 47.9955C25.3171 49.2563 22.5993 50.1406 19.8043 50.3651H19.8042Z" fill="white"/>
<path d="M21.0631 4.00216C20.9937 4.04321 22.6554 6.23242 22.9979 9.31636C23.1023 10.2566 23.0588 11.0528 22.9979 11.6112C27.4793 16.9819 31.04 23.1411 33.4489 29.7062C34.7792 33.3317 35.536 37.1695 34.586 40.9919C33.0405 47.2102 26.7119 51.1361 20.6414 51.8163C18.5219 52.0538 16.3821 51.9453 14.2723 51.667C13.2508 51.5322 12.6553 51.39 12.6538 51.4187C12.6488 51.5068 20.3616 53.7614 28.3029 50.1279C31.0157 48.8867 33.4377 47.0335 35.0715 44.513C39.8944 37.0721 34.5857 27.9022 30.971 21.1646C29.562 18.538 28.1926 15.8907 26.6971 13.3114C25.4646 11.1854 24.2778 9.00161 22.9733 6.92049C22.9733 6.92049 21.2252 3.90651 21.0632 4.00223L21.0631 4.00216Z" fill="white"/>
<path d="M21.0631 4.00216C20.9937 4.04321 22.6554 6.23242 22.9979 9.31636C23.1023 10.2566 23.0588 11.0528 22.9979 11.6112C27.4793 16.9819 31.04 23.1411 33.4489 29.7062C34.7792 33.3317 35.536 37.1695 34.586 40.9919C33.0405 47.2102 26.7119 51.1361 20.6414 51.8163C18.5219 52.0538 16.3821 51.9453 14.2723 51.667C13.2508 51.5322 12.6553 51.39 12.6538 51.4187C12.6488 51.5068 20.3616 53.7614 28.3029 50.1279C31.0157 48.8867 33.4377 47.0335 35.0715 44.513C39.8944 37.0721 34.5857 27.9022 30.971 21.1646C29.562 18.538 28.1926 15.8907 26.6971 13.3114C25.4646 11.1854 24.2778 9.00161 22.9733 6.92049C22.9733 6.92049 21.2252 3.90651 21.0632 4.00223L21.0631 4.00216Z" fill="white"/>
<path d="M26.2712 22.5716C26.1942 20.9183 26.1172 19.265 26.0403 17.6116C27.1155 19.1437 28.45 21.2338 29.7482 23.8411C31.966 28.295 32.7651 31.49 32.9505 32.2763C34.0595 36.9798 33.4905 39.1483 33.2803 39.8493C32.7969 41.4618 32.0356 42.5644 31.7489 42.9568C30.2727 44.9774 28.4368 45.8858 27.2025 46.4785C26.7704 46.6859 24.656 47.6753 21.5553 47.9287C16.5472 48.3379 12.6219 46.529 12.6539 46.3988C12.6826 46.2817 15.8701 47.7126 20.31 47.384C22.5717 47.2167 26.7938 46.6852 29.6911 43.6738C33.0839 40.1473 31.399 33.6013 30.7759 31.1801C29.7167 27.0649 27.6281 24.1694 26.2714 22.5715L26.2712 22.5716Z" fill="white"/>
<path d="M26.2712 22.5716C26.1942 20.9183 26.1172 19.265 26.0403 17.6116C27.1155 19.1437 28.45 21.2338 29.7482 23.8411C31.966 28.295 32.7651 31.49 32.9505 32.2763C34.0595 36.9798 33.4905 39.1483 33.2803 39.8493C32.7969 41.4618 32.0356 42.5644 31.7489 42.9568C30.2727 44.9774 28.4368 45.8858 27.2025 46.4785C26.7704 46.6859 24.656 47.6753 21.5553 47.9287C16.5472 48.3379 12.6219 46.529 12.6539 46.3988C12.6826 46.2817 15.8701 47.7126 20.31 47.384C22.5717 47.2167 26.7938 46.6852 29.6911 43.6738C33.0839 40.1473 31.399 33.6013 30.7759 31.1801C29.7167 27.0649 27.6281 24.1694 26.2714 22.5715L26.2712 22.5716Z" fill="white"/>
<path d="M24.8414 17.4118C20.7944 21.6052 16.7476 25.7985 12.7007 29.9919C13.4716 30.2479 14.5616 30.6497 15.8188 31.2546C17.4159 32.0232 18.8636 32.7198 20.2851 34.1169C21.1906 35.0068 22.0393 35.8409 22.4762 37.2316C22.9565 38.761 22.9533 41.0076 21.802 42.2826C19.727 44.5806 14.0445 43.5873 11.4478 40.598C7.90596 36.5207 10.5525 29.2449 12.8453 25.6984C14.1377 23.6991 15.728 22.2507 17.6727 20.4793C21.3847 17.0983 24.6629 15.3098 24.5829 15.1759C24.5235 15.0762 21.292 16.3533 18.0099 18.7957C16.5663 19.8699 5.41543 28.318 7.30753 38.0735C7.38484 38.4724 7.46882 38.8434 7.46882 38.8434C8.64919 42.3811 12.075 44.2943 12.7313 44.6283C13.1978 44.8656 18.1551 47.3121 22.0976 45.1401C23.6913 44.2621 24.8891 42.7562 24.969 42.6541C25.4278 42.0683 25.9385 41.416 26.2452 40.4231C26.7448 38.8052 26.3569 37.4012 26.1176 36.5348C25.9752 36.0196 25.4206 34.1945 23.7566 32.5189C23.2544 32.0132 22.0871 30.8637 20.247 30.2879C18.284 29.6735 17.0263 30.1723 16.8652 29.7142C16.6533 29.1121 18.7869 28.1062 21.3318 26.0171C22.9881 24.6574 24.2264 23.3924 25.0328 22.5112C24.9689 20.8114 24.9052 19.1116 24.8414 17.4118Z" fill="white"/>
<path d="M24.8414 17.4118C20.7944 21.6052 16.7476 25.7985 12.7007 29.9919C13.4716 30.2479 14.5616 30.6497 15.8188 31.2546C17.4159 32.0232 18.8636 32.7198 20.2851 34.1169C21.1906 35.0068 22.0393 35.8409 22.4762 37.2316C22.9565 38.761 22.9533 41.0076 21.802 42.2826C19.727 44.5806 14.0445 43.5873 11.4478 40.598C7.90596 36.5207 10.5525 29.2449 12.8453 25.6984C14.1377 23.6991 15.728 22.2507 17.6727 20.4793C21.3847 17.0983 24.6629 15.3098 24.5829 15.1759C24.5235 15.0762 21.292 16.3533 18.0099 18.7957C16.5663 19.8699 5.41543 28.318 7.30753 38.0735C7.38484 38.4724 7.46882 38.8434 7.46882 38.8434C8.64919 42.3811 12.075 44.2943 12.7313 44.6283C13.1978 44.8656 18.1551 47.3121 22.0976 45.1401C23.6913 44.2621 24.8891 42.7562 24.969 42.6541C25.4278 42.0683 25.9385 41.416 26.2452 40.4231C26.7448 38.8052 26.3569 37.4012 26.1176 36.5348C25.9752 36.0196 25.4206 34.1945 23.7566 32.5189C23.2544 32.0132 22.0871 30.8637 20.247 30.2879C18.284 29.6735 17.0263 30.1723 16.8652 29.7142C16.6533 29.1121 18.7869 28.1062 21.3318 26.0171C22.9881 24.6574 24.2264 23.3924 25.0328 22.5112C24.9689 20.8114 24.9052 19.1116 24.8414 17.4118Z" fill="white"/>
<path d="M15.9153 40.9655C15.3372 40.9682 14.8174 37.0288 14.3361 37.0744C14.2253 37.0849 14.1793 37.3007 13.9341 37.3524C13.7247 37.3963 13.5377 37.2855 13.3887 37.1945C13.1576 37.0535 12.7451 36.8016 12.6668 36.3533C12.5576 35.7287 13.1547 35.0536 13.7346 35.0161C13.8767 35.007 14.2232 35.0229 14.7422 35.572C15.9564 36.8566 15.8601 38.6739 16.0808 38.6669C16.2374 38.662 16.281 37.7458 16.6823 36.2481C17 35.0628 17.2314 34.6717 17.6148 34.4904C17.9206 34.3457 18.3126 34.3397 18.6374 34.5054C19.075 34.7286 19.2962 35.2154 19.2691 35.6471C19.243 36.0613 18.9822 36.5259 18.737 36.5209C18.4696 36.5152 18.4138 35.9547 18.0809 35.9176C17.8062 35.8868 17.5577 36.2367 17.4643 36.3683C17.1668 36.7871 17.1546 37.1562 17.0582 37.7353C16.9197 38.5678 16.7207 39.1505 16.5318 39.7035C16.2447 40.5442 16.1011 40.9646 15.9152 40.9655H15.9153Z" fill="white"/>
<path d="M15.9153 40.9655C15.3372 40.9682 14.8174 37.0288 14.3361 37.0744C14.2253 37.0849 14.1793 37.3007 13.9341 37.3524C13.7247 37.3963 13.5377 37.2855 13.3887 37.1945C13.1576 37.0535 12.7451 36.8016 12.6668 36.3533C12.5576 35.7287 13.1547 35.0536 13.7346 35.0161C13.8767 35.007 14.2232 35.0229 14.7422 35.572C15.9564 36.8566 15.8601 38.6739 16.0808 38.6669C16.2374 38.662 16.281 37.7458 16.6823 36.2481C17 35.0628 17.2314 34.6717 17.6148 34.4904C17.9206 34.3457 18.3126 34.3397 18.6374 34.5054C19.075 34.7286 19.2962 35.2154 19.2691 35.6471C19.243 36.0613 18.9822 36.5259 18.737 36.5209C18.4696 36.5152 18.4138 35.9547 18.0809 35.9176C17.8062 35.8868 17.5577 36.2367 17.4643 36.3683C17.1668 36.7871 17.1546 37.1562 17.0582 37.7353C16.9197 38.5678 16.7207 39.1505 16.5318 39.7035C16.2447 40.5442 16.1011 40.9646 15.9152 40.9655H15.9153Z" fill="white"/>
<path d="M21.7995 11.9223L20.5619 12.7839C20.5123 12.8184 20.444 12.8063 20.4095 12.7566L19.4174 11.3347C19.3828 11.2851 19.3951 11.2169 19.4447 11.1824L20.6823 10.3207C20.7319 10.2862 20.8002 10.2983 20.8349 10.3479L21.8268 11.7698C21.8614 11.8194 21.8492 11.8877 21.7996 11.9221L21.7995 11.9223Z" fill="white"/>
<path d="M21.7995 11.9223L20.5619 12.7839C20.5123 12.8184 20.444 12.8063 20.4095 12.7566L19.4174 11.3347C19.3828 11.2851 19.3951 11.2169 19.4447 11.1824L20.6823 10.3207C20.7319 10.2862 20.8002 10.2983 20.8349 10.3479L21.8268 11.7698C21.8614 11.8194 21.8492 11.8877 21.7996 11.9221L21.7995 11.9223Z" fill="white"/>
<path d="M27.7968 48.7825C28.5158 48.2068 29.2347 47.631 29.9536 47.0553C30.145 46.7662 30.3362 46.477 30.5275 46.1878C30.1244 46.5089 29.7212 46.8299 29.3181 47.1509C29.0117 47.2018 28.7854 47.0683 28.7638 46.9302C28.7446 46.8065 28.8843 46.6451 29.0564 46.6119C29.191 46.5859 29.3325 46.6409 29.4236 46.7537C29.4518 46.7092 29.5281 46.5758 29.505 46.4036C29.4976 46.3481 29.4827 46.2374 29.406 46.1762C29.2315 46.0369 28.8686 46.2596 28.8409 46.2769C28.5637 46.4508 28.2858 46.8285 28.3851 47.1662C28.4276 47.3103 28.5498 47.4846 28.7021 47.5034C28.8364 47.5201 28.9495 47.4109 28.9597 47.4243C28.968 47.4355 28.8944 47.5139 28.5432 47.8042C28.2943 48.1303 28.0456 48.4564 27.7968 48.7825H27.7968Z" fill="white"/>
<path d="M27.7968 48.7825C28.5158 48.2068 29.2347 47.631 29.9536 47.0553C30.145 46.7662 30.3362 46.477 30.5275 46.1878C30.1244 46.5089 29.7212 46.8299 29.3181 47.1509C29.0117 47.2018 28.7854 47.0683 28.7638 46.9302C28.7446 46.8065 28.8843 46.6451 29.0564 46.6119C29.191 46.5859 29.3325 46.6409 29.4236 46.7537C29.4518 46.7092 29.5281 46.5758 29.505 46.4036C29.4976 46.3481 29.4827 46.2374 29.406 46.1762C29.2315 46.0369 28.8686 46.2596 28.8409 46.2769C28.5637 46.4508 28.2858 46.8285 28.3851 47.1662C28.4276 47.3103 28.5498 47.4846 28.7021 47.5034C28.8364 47.5201 28.9495 47.4109 28.9597 47.4243C28.968 47.4355 28.8944 47.5139 28.5432 47.8042C28.2943 48.1303 28.0456 48.4564 27.7968 48.7825H27.7968Z" fill="white"/>
<path d="M26.2996 31.1308C26.5342 30.6155 26.9487 29.4853 26.5336 28.3118C26.2575 27.5312 25.5769 26.4485 25.157 26.7304C24.9542 26.8666 24.6811 27.2438 24.8129 27.3904C24.8725 27.4568 24.9111 27.4792 24.9551 27.5234C24.9793 27.5476 25.001 27.5693 25.0428 27.6146C25.146 27.7266 25.221 27.8274 25.2391 27.8517C25.4191 28.0927 25.5431 28.2153 25.7013 28.4363C25.7013 28.4363 25.9288 28.7541 26.1008 29.1366C26.442 29.8958 26.3395 30.8353 26.2996 31.1307V31.1308Z" fill="white"/>
<path d="M26.8878 34.9688C26.8955 35.0579 27.534 35.0727 27.835 35.0687C28.2124 35.0636 28.5192 35.0596 28.9105 34.9422C29.0292 34.9066 29.5137 34.7533 29.9839 34.3425C30.2008 34.153 30.4397 33.9443 30.3971 33.732C30.3836 33.6653 30.3387 33.5801 29.982 33.3789C29.5289 33.1231 29.1506 33.0064 29.1082 32.9935C28.6099 32.8429 28.3607 32.7676 28.1183 32.8137C27.6313 32.9066 27.1757 33.3407 27.245 33.5748C27.293 33.7369 27.5684 33.7228 28.5685 34.0204C29.0889 34.1753 29.1981 34.2338 29.196 34.2909C29.1927 34.3855 28.8866 34.4288 28.2832 34.5626C27.5911 34.7159 26.8796 34.8737 26.8877 34.9688H26.8878Z" fill="white"/>
<path d="M28.3539 42.0205L27.8181 41.0034C27.7968 40.9629 27.7913 40.9161 27.8026 40.8718L27.8663 40.6214C27.8774 40.5783 27.9037 40.5405 27.9404 40.5151L28.6503 40.0253C28.7288 39.9712 28.7531 39.8661 28.7064 39.783L28.2531 38.9771C28.2298 38.9356 28.2235 38.887 28.2351 38.841L28.2566 38.7568C28.2653 38.7224 28.284 38.6912 28.31 38.667L28.6676 38.3358C28.7558 38.2542 28.8973 38.2769 28.9552 38.3822L29.4699 39.3163C29.4925 39.3573 29.4986 39.4054 29.487 39.4508L29.4045 39.7743C29.3944 39.814 29.3712 39.8493 29.3388 39.8745L28.6379 40.4187C28.5653 40.475 28.5452 40.576 28.5907 40.6558L29.0241 41.4156C29.044 41.4503 29.0519 41.4905 29.0469 41.53L29.031 41.6564C29.0255 41.7 29.0048 41.7402 28.9722 41.7698L28.6418 42.0707C28.5524 42.1522 28.4101 42.1272 28.3537 42.0203L28.3539 42.0205Z" fill="white"/>
</g>
<defs>
<filter id="filter0_d_233_518" x="0" y="0" width="41" height="56.1905" filterUnits="userSpaceOnUse" color-interpolation-filters="sRGB">
<feFlood flood-opacity="0" result="BackgroundImageFix"/>
<feColorMatrix in="SourceAlpha" type="matrix" values="0 0 0 0 0 0 0 0 0 0 0 0 0 0 0 0 0 0 127 0" result="hardAlpha"/>
<feOffset/>
<feGaussianBlur stdDeviation="2"/>
<feComposite in2="hardAlpha" operator="out"/>
<feColorMatrix type="matrix" values="0 0 0 0 0.85098 0 0 0 0 0.85098 0 0 0 0 0.85098 0 0 0 0.25 0"/>
<feBlend mode="normal" in2="BackgroundImageFix" result="effect1_dropShadow_233_518"/>
<feBlend mode="normal" in="SourceGraphic" in2="effect1_dropShadow_233_518" result="shape"/>
</filter>
</defs>
</svg>
