<svg width="10" height="10" viewBox="0 0 10 10" fill="none" xmlns="http://www.w3.org/2000/svg">
<g clip-path="url(#clip0_1_1223)">
<path d="M9.16668 4.61667V5C9.16617 5.89851 8.87522 6.77278 8.33723 7.49243C7.79925 8.21207 7.04305 8.73853 6.18141 8.99329C5.31977 9.24805 4.39887 9.21746 3.55604 8.90608C2.71321 8.59469 1.99362 8.01921 1.50458 7.26544C1.01554 6.51168 0.783256 5.62003 0.842376 4.72346C0.901495 3.8269 1.24885 2.97347 1.83263 2.29045C2.41641 1.60742 3.20534 1.13141 4.08176 0.933394C4.95817 0.735378 5.87512 0.825973 6.69585 1.19167" stroke="#D9D9D9" stroke-linecap="round" stroke-linejoin="round"/>
<path d="M9.16667 1.66667L5 5.83751L3.75 4.58751" stroke="#D9D9D9" stroke-linecap="round" stroke-linejoin="round"/>
</g>
<defs>
<clipPath id="clip0_1_1223">
<rect width="10" height="10" fill="white"/>
</clipPath>
</defs>
</svg>
