<svg width="47" height="43" viewBox="0 0 47 43" fill="none" xmlns="http://www.w3.org/2000/svg">
<g filter="url(#filter0_d_233_449)">
<path d="M8.53551 4C7.46956 4 6.59244 4.88088 6.59244 5.94683V26.6864C6.59244 27.7524 7.46956 28.6294 8.53551 28.6294H20.8496C21.938 28.6294 22.7927 29.4829 22.7927 30.5712V4.64304C22.1757 4.17294 21.4719 3.99998 20.8496 4H8.53551ZM26.0358 4C25.3879 3.99998 24.7006 4.16532 24.0889 4.63541V30.5712C24.0889 29.4829 24.9474 28.6294 26.0358 28.6294H38.3512C39.4171 28.6294 40.293 27.7524 40.293 26.6864V5.94683C40.293 4.88088 39.4171 4 38.3512 4H26.0358ZM10.4469 7.86585H16.3382C17.2025 7.86585 17.2025 9.16209 16.3382 9.16209H10.4773C9.61331 9.20398 9.55185 7.90762 10.4469 7.86585ZM20.2142 7.86585C21.0978 7.82666 21.1266 9.16329 20.242 9.16209L18.9167 9.18654C18.0335 9.22255 18.0088 7.88719 18.8927 7.89037L20.2142 7.86585ZM26.6371 7.8879L27.9928 7.91706C28.9286 7.8617 28.8961 9.30632 27.9637 9.20949L26.6434 9.18497C25.7791 9.21044 25.7416 7.91343 26.6371 7.8879ZM30.5207 7.8879C30.5295 7.88771 30.5383 7.88771 30.5472 7.8879H36.403C37.268 7.8879 37.268 9.18542 36.403 9.18542H30.5472C29.6823 9.20256 29.6557 7.90562 30.5207 7.8879ZM4.62659 7.88918C4.25309 7.89104 4 8.21037 4 8.53984V29.4579C4 30.7535 4.68269 31.3487 5.7418 31.5946L23.2952 35.6706C23.391 35.6927 23.4906 35.6927 23.5864 35.6706L41.1449 31.5946C42.5473 31.269 42.8867 30.4445 42.8867 29.411V8.53984C42.8873 8.12047 42.4958 7.81072 42.0879 7.90816L41.5892 8.02575V26.6855C41.5892 28.4615 40.1282 29.9248 38.3512 29.9248H26.0358C25.625 29.9248 25.3851 30.1637 25.3851 30.5704C25.3853 30.5802 25.3853 30.59 25.3851 30.5996C25.3734 31.1324 25.12 31.6856 24.7345 32.0224C24.349 32.3592 23.8864 32.5009 23.4408 32.5009C22.9952 32.5009 22.5326 32.359 22.1471 32.0224C21.7616 31.6856 21.5082 31.1324 21.4965 30.5996C21.4964 30.5898 21.4964 30.58 21.4965 30.5704C21.4965 30.1607 21.2604 29.9248 20.8496 29.9248H8.53551C6.7585 29.9248 5.29622 28.4625 5.29622 26.6855V8.02575C5.08199 7.95398 4.85578 7.88918 4.62659 7.88918ZM10.4469 11.7538H20.2281C21.165 11.6747 21.165 13.1254 20.2281 13.0463H10.4773C9.67106 13.0291 9.61495 11.8482 10.4469 11.7538ZM26.6244 11.7784H36.403C37.2674 11.7784 37.2674 13.0758 36.403 13.0758H26.6586C25.795 13.1211 25.7274 11.8237 26.6244 11.7784ZM10.4659 15.6391C10.4747 15.6389 10.4836 15.6389 10.4925 15.6391L11.8128 15.6683C12.6966 15.6658 12.6719 17.0005 11.7888 16.9645L10.4685 16.9366C9.61928 16.9219 9.61693 15.6564 10.4659 15.6391ZM14.3407 15.6391C14.3495 15.6389 14.3583 15.6389 14.3672 15.6391H20.2281C21.0931 15.6391 21.0931 16.9366 20.2281 16.9366H14.3672C13.5023 16.9538 13.4757 15.6568 14.3407 15.6391ZM26.6244 15.6683H32.5144C33.3787 15.6683 33.3787 16.9645 32.5144 16.9645H26.6586C25.795 17.0098 25.7273 15.7136 26.6244 15.6683ZM36.3891 15.6683C37.2719 15.6291 37.3019 16.964 36.4182 16.9645L35.0929 16.989C34.2098 17.0248 34.185 15.6896 35.0689 15.6927L36.3891 15.6683ZM10.4773 19.5291H20.2281C21.1116 19.5095 21.1116 20.845 20.2281 20.8254H10.4773C9.59379 20.845 9.59379 19.5095 10.4773 19.5291ZM26.6244 19.5583H36.403C37.34 19.4792 37.34 20.9285 36.403 20.8494H26.6586C25.85 20.8372 25.7879 19.6537 26.6244 19.5583ZM10.4469 23.4191H16.3382C17.2025 23.4191 17.2025 24.7153 16.3382 24.7153H10.4773C9.61331 24.7572 9.55185 23.4609 10.4469 23.4191ZM20.2142 23.4191C21.0979 23.3799 21.1266 24.7165 20.242 24.7153L18.9167 24.7398C18.0336 24.7758 18.0088 23.4404 18.8927 23.4436L20.2142 23.4191ZM26.6117 23.4436C26.6304 23.4428 26.6489 23.4428 26.6674 23.4436L27.9928 23.4715C28.858 23.4911 28.8289 24.7882 27.9637 24.769L26.6434 24.7399C25.7922 24.7472 25.7611 23.4775 26.6117 23.4436ZM30.5472 23.4436H36.403C37.2482 23.4632 37.2482 24.7211 36.403 24.7398H30.5472C29.6637 24.7594 29.6637 23.4239 30.5472 23.4436ZM8.53551 33.5741V38.3514C8.53551 38.7683 8.92296 39.077 9.3292 38.9831L20.7015 36.3995L8.53551 33.5741ZM38.3512 33.5741L26.1826 36.3995L37.5562 38.9831C37.9624 39.0769 38.3512 38.7685 38.3512 38.3514V33.5741Z" fill="url(#paint0_linear_233_449)"/>
</g>
<defs>
<filter id="filter0_d_233_449" x="0" y="0" width="46.8867" height="43" filterUnits="userSpaceOnUse" color-interpolation-filters="sRGB">
<feFlood flood-opacity="0" result="BackgroundImageFix"/>
<feColorMatrix in="SourceAlpha" type="matrix" values="0 0 0 0 0 0 0 0 0 0 0 0 0 0 0 0 0 0 127 0" result="hardAlpha"/>
<feOffset/>
<feGaussianBlur stdDeviation="2"/>
<feComposite in2="hardAlpha" operator="out"/>
<feColorMatrix type="matrix" values="0 0 0 0 0 0 0 0 0 0 0 0 0 0 0 0 0 0 0.25 0"/>
<feBlend mode="normal" in2="BackgroundImageFix" result="effect1_dropShadow_233_449"/>
<feBlend mode="normal" in="SourceGraphic" in2="effect1_dropShadow_233_449" result="shape"/>
</filter>
<linearGradient id="paint0_linear_233_449" x1="23.4433" y1="4" x2="23.4433" y2="39" gradientUnits="userSpaceOnUse">
<stop stop-color="#ECCAFF"/>
<stop offset="1" stop-color="#A5ADFF"/>
</linearGradient>
</defs>
</svg>
