<svg width="35" height="48" viewBox="0 0 35 48" fill="none" xmlns="http://www.w3.org/2000/svg">
<g filter="url(#filter0_d_233_455)">
<path d="M13.4985 36.4939L14.2568 35.4987L5.90823 30.2292C5.89886 30.6389 5.89224 31.0562 5.89178 31.4906C5.89178 31.983 5.89795 32.4919 5.91142 33.0179C5.93038 33.7933 6.43148 34.4422 7.12055 34.6902C7.27723 34.7466 7.44328 34.782 7.61595 34.7934L6.30221 36.5178L4.58216 38.7753C4.56137 38.8025 4.54424 38.8313 4.52483 38.8589C4.49468 38.9014 4.46453 38.9432 4.4369 38.9873C4.41063 39.0291 4.3871 39.072 4.36335 39.1147C4.34211 39.1524 4.32087 39.1896 4.30168 39.228C4.2777 39.2757 4.25669 39.3241 4.23568 39.3728C4.22015 39.4086 4.20393 39.4445 4.18977 39.4815C4.17059 39.5313 4.15414 39.5815 4.1377 39.6318C4.12536 39.6702 4.11303 39.7081 4.10229 39.7469C4.08882 39.7956 4.07786 39.8447 4.06712 39.8935C4.05776 39.936 4.04839 39.978 4.04086 40.0212C4.03286 40.0678 4.02715 40.1142 4.02167 40.161C4.01619 40.2069 4.01048 40.2528 4.00705 40.2992C4.00386 40.3453 4.00294 40.3912 4.0018 40.4373C4.00066 40.4837 3.99929 40.5298 4.00043 40.5764C4.0018 40.6267 4.00591 40.6762 4.00979 40.726C4.01322 40.7685 4.01528 40.8103 4.02076 40.853C4.02784 40.9115 4.03857 40.9693 4.04953 41.0273C4.05456 41.0552 4.0573 41.083 4.06324 41.1109C4.06507 41.1177 4.06735 41.1246 4.06872 41.1314C4.07786 41.1726 4.08996 41.2125 4.1007 41.2532C4.11303 41.2977 4.12491 41.3427 4.13861 41.3861C4.1514 41.4252 4.16602 41.4635 4.18041 41.5019C4.19685 41.5462 4.21375 41.5903 4.2318 41.6332C4.24755 41.6702 4.26491 41.7063 4.28227 41.7426C4.30328 41.7858 4.32452 41.8281 4.34691 41.8699C4.36609 41.905 4.38596 41.94 4.40675 41.9742C4.43141 42.0156 4.45768 42.0555 4.4844 42.0955C4.50633 42.1286 4.52825 42.1613 4.55201 42.1935C4.58216 42.2348 4.61436 42.2743 4.64679 42.3136C4.67009 42.3419 4.69201 42.3707 4.71645 42.3984C4.77127 42.46 4.8286 42.5196 4.88844 42.5763L13.4985 36.4939Z" fill="url(#paint0_linear_233_455)"/>
<path d="M18.2964 37.1365H17.5582C17.5077 37.2096 17.46 37.2852 17.4166 37.3635C17.373 37.2852 17.3255 37.2096 17.275 37.1365H16.5366L7.97743 43.1828L15.5289 41.5446C16.3639 41.3634 17.0313 40.8324 17.4166 40.1399C17.8017 40.8324 18.4688 41.3634 19.3043 41.5446L26.8558 43.1828L18.2964 37.1365Z" fill="url(#paint1_linear_233_455)"/>
<path d="M9.65467 27.925L9.68093 27.9189C9.95729 24.5694 10.6155 22.5522 11.2391 21.4089V28.4076C12.7211 29.028 15.2876 30.272 17.4165 32.178C19.5452 30.2723 22.1112 29.0282 23.5935 28.4076V21.416C23.7545 21.7131 23.9192 22.0676 24.0816 22.4924C24.5374 23.6919 24.9463 25.4451 25.1498 27.9184L25.1786 27.925L27.4646 28.457L28.7916 27.6192C28.4346 23.2386 27.4694 20.5369 26.2538 18.7743C25.4853 17.6671 24.5948 16.9702 23.7945 16.5911C23.083 16.2508 22.4661 16.1592 22.0801 16.1437C22.0429 16.1386 22.0057 16.1338 21.9678 16.1306C20.9516 17.5497 19.2909 18.477 17.4167 18.477C15.5425 18.477 13.8818 17.5497 12.8657 16.1306C12.8282 16.1336 12.7912 16.1382 12.7547 16.1434C12.3692 16.1587 11.7509 16.2503 11.0383 16.5909C9.82551 17.1593 8.46358 18.4438 7.51048 20.7529C6.81593 22.4198 6.28651 24.6272 6.04166 27.6188L7.36933 28.457L9.65467 27.925Z" fill="url(#paint2_linear_233_455)"/>
<path d="M20.576 35.4987L21.334 36.4939L29.9446 42.5768C30.0042 42.5203 30.0613 42.461 30.1161 42.3993C30.1412 42.3707 30.1643 42.3408 30.1883 42.3114C30.2195 42.2732 30.2506 42.2351 30.2798 42.1951C30.3045 42.1618 30.3274 42.1273 30.3504 42.093C30.376 42.0551 30.4009 42.0167 30.4244 41.9772C30.4463 41.9409 30.4671 41.9044 30.487 41.8671C30.5085 41.8278 30.5286 41.7876 30.5482 41.747C30.5669 41.7084 30.5852 41.67 30.6021 41.6305C30.619 41.5905 30.6345 41.5497 30.6498 41.5088C30.6654 41.467 30.6811 41.4259 30.6948 41.3836C30.7074 41.3439 30.7181 41.3032 30.7291 41.263C30.7412 41.2185 30.754 41.1742 30.7643 41.1292C30.7656 41.1232 30.7677 41.1173 30.7691 41.1111C30.7743 41.0867 30.7764 41.0623 30.7812 41.0378C30.7931 40.9755 30.8045 40.9136 30.812 40.8508C30.8168 40.8119 30.8189 40.7736 30.8221 40.7347C30.8266 40.6813 30.8307 40.6278 30.8321 40.5742C30.8332 40.5308 30.8319 40.4878 30.831 40.4449C30.8298 40.3953 30.8287 40.3458 30.8253 40.2964C30.8221 40.2533 30.8168 40.2103 30.812 40.1676C30.8061 40.1178 30.7999 40.068 30.7912 40.0185C30.7844 39.9785 30.7755 39.9392 30.767 39.8997C30.7556 39.8479 30.7437 39.7958 30.7296 39.7442C30.7197 39.7083 30.7081 39.6731 30.6967 39.6377C30.6795 39.5845 30.6622 39.5313 30.6419 39.479C30.6286 39.4452 30.614 39.4123 30.5996 39.379C30.5774 39.3274 30.5551 39.2764 30.5297 39.2259C30.5117 39.1903 30.492 39.1561 30.4724 39.1213C30.4473 39.0759 30.4221 39.0302 30.394 38.9857C30.3685 38.9448 30.3401 38.9057 30.3125 38.8662C30.2913 38.8361 30.2728 38.8048 30.2504 38.7755L28.5306 36.5181L27.217 34.7939C27.3897 34.7825 27.5555 34.7471 27.7122 34.6907C28.402 34.4426 28.9028 33.7929 28.9216 33.0168C28.9339 32.491 28.9401 31.9828 28.9405 31.4902C28.9398 31.0571 28.9346 30.6373 28.925 30.229L20.576 35.4987Z" fill="url(#paint3_linear_233_455)"/>
<path d="M17.4161 7.28526C19.564 7.28526 21.4323 8.50238 22.3696 10.2825L21.6415 5.02778C21.6415 5.02778 20.0913 4 17.4161 4C14.7409 4 13.1908 5.02778 13.1908 5.02778L12.4627 10.2825C13.4 8.50238 15.2683 7.28526 17.4161 7.28526Z" fill="url(#paint4_linear_233_455)"/>
<path d="M17.4163 18.0198C20.2544 18.0198 22.5552 15.719 22.5552 12.8809C22.5552 10.0427 20.2544 7.74197 17.4163 7.74197C14.5781 7.74197 12.2773 10.0427 12.2773 12.8809C12.2773 15.719 14.5781 18.0198 17.4163 18.0198Z" fill="url(#paint5_linear_233_455)"/>
<path d="M16.3186 36.4516H18.5139L29.1992 43.9999L29.7229 43.2585L18.9995 35.6835L30.1142 28.6674L29.6297 27.8997L27.5876 29.189L25.023 28.5925C25.023 28.5925 20.5153 30.0864 17.4165 33.1159C14.3176 30.0864 9.80971 28.5925 9.80971 28.5925L7.24527 29.189L5.20272 27.8997L4.71875 28.6674L15.8332 35.6835L5.10931 43.2585L5.63348 43.9999L16.3186 36.4516Z" fill="url(#paint6_linear_233_455)"/>
</g>
<defs>
<filter id="filter0_d_233_455" x="0" y="0" width="34.8325" height="47.9999" filterUnits="userSpaceOnUse" color-interpolation-filters="sRGB">
<feFlood flood-opacity="0" result="BackgroundImageFix"/>
<feColorMatrix in="SourceAlpha" type="matrix" values="0 0 0 0 0 0 0 0 0 0 0 0 0 0 0 0 0 0 127 0" result="hardAlpha"/>
<feOffset/>
<feGaussianBlur stdDeviation="2"/>
<feComposite in2="hardAlpha" operator="out"/>
<feColorMatrix type="matrix" values="0 0 0 0 0 0 0 0 0 0 0 0 0 0 0 0 0 0 0.25 0"/>
<feBlend mode="normal" in2="BackgroundImageFix" result="effect1_dropShadow_233_455"/>
<feBlend mode="normal" in="SourceGraphic" in2="effect1_dropShadow_233_455" result="shape"/>
</filter>
<linearGradient id="paint0_linear_233_455" x1="9.1284" y1="30.2292" x2="9.1284" y2="42.5763" gradientUnits="userSpaceOnUse">
<stop stop-color="#ECCAFF"/>
<stop offset="1" stop-color="#A5ADFF"/>
</linearGradient>
<linearGradient id="paint1_linear_233_455" x1="17.4166" y1="37.1365" x2="17.4166" y2="43.1828" gradientUnits="userSpaceOnUse">
<stop stop-color="#ECCAFF"/>
<stop offset="1" stop-color="#A5ADFF"/>
</linearGradient>
<linearGradient id="paint2_linear_233_455" x1="17.4166" y1="16.1306" x2="17.4166" y2="32.178" gradientUnits="userSpaceOnUse">
<stop stop-color="#ECCAFF"/>
<stop offset="1" stop-color="#A5ADFF"/>
</linearGradient>
<linearGradient id="paint3_linear_233_455" x1="25.7042" y1="30.229" x2="25.7042" y2="42.5768" gradientUnits="userSpaceOnUse">
<stop stop-color="#ECCAFF"/>
<stop offset="1" stop-color="#A5ADFF"/>
</linearGradient>
<linearGradient id="paint4_linear_233_455" x1="17.4161" y1="4" x2="17.4161" y2="10.2825" gradientUnits="userSpaceOnUse">
<stop stop-color="#ECCAFF"/>
<stop offset="1" stop-color="#A5ADFF"/>
</linearGradient>
<linearGradient id="paint5_linear_233_455" x1="17.4163" y1="7.74197" x2="17.4163" y2="18.0198" gradientUnits="userSpaceOnUse">
<stop stop-color="#ECCAFF"/>
<stop offset="1" stop-color="#A5ADFF"/>
</linearGradient>
<linearGradient id="paint6_linear_233_455" x1="17.4165" y1="27.8997" x2="17.4165" y2="43.9999" gradientUnits="userSpaceOnUse">
<stop stop-color="#ECCAFF"/>
<stop offset="1" stop-color="#A5ADFF"/>
</linearGradient>
</defs>
</svg>
