<svg width="27" height="27" viewBox="0 0 27 27" fill="none" xmlns="http://www.w3.org/2000/svg">
<g clip-path="url(#clip0_165_582)">
<g filter="url(#filter0_d_165_582)">
<path d="M25.7491 11.0992L14.2323 2.49491C14.0148 2.33227 13.757 2.24985 13.5 2.25C13.243 2.24985 12.9852 2.33227 12.7677 2.49491L1.25095 11.0992C1.14778 11.1762 1.10542 11.306 1.13345 11.425C1.14279 11.4647 1.15996 11.5031 1.18528 11.538C1.2866 11.6776 1.48026 11.7074 1.61784 11.6046L4.21877 9.66144V15.993V22.2992C4.21839 22.7617 4.44444 23.1736 4.78204 23.4554C5.12048 23.739 5.57382 23.9059 6.06843 23.9062H12.1374H14.8626H20.9316C21.4262 23.9059 21.8795 23.739 22.218 23.4554C22.5556 23.1736 22.7816 22.7617 22.7812 22.2992V15.993V9.66144L25.3822 11.6046C25.5197 11.7074 25.7134 11.6776 25.8147 11.538C25.8654 11.4682 25.8834 11.3842 25.8715 11.3048C25.8596 11.2254 25.8179 11.1505 25.7491 11.0992ZM22.1625 15.993V22.2992C22.1621 22.5509 22.0433 22.7855 21.8235 22.9718C21.6044 23.1562 21.2876 23.2789 20.9316 23.2785H14.8626H12.1374H6.06843C5.71238 23.2789 5.39556 23.1562 5.17654 22.9718C4.95665 22.7855 4.8379 22.5509 4.83752 22.2992V15.993V9.19917L13.1346 3.00036C13.2451 2.91796 13.3722 2.87785 13.5 2.87772C13.6278 2.87785 13.7549 2.91796 13.8654 3.00036L22.1625 9.19917V15.993Z" fill="#5130FC"/>
<path d="M0.890114 11.4824L0.890105 11.4823C0.840324 11.271 0.914792 11.0382 1.10133 10.8989M0.890114 11.4824L1.10133 10.8989M0.890114 11.4824C0.906897 11.5536 0.937743 11.6225 0.982937 11.6848L0.982974 11.6849M0.890114 11.4824L0.982974 11.6849M1.10133 10.8989L12.618 2.29468C12.618 2.29466 12.618 2.29465 12.6181 2.29463C12.8792 2.09943 13.1895 1.99985 13.5 2M1.10133 10.8989L14.382 2.29468M0.982974 11.6849C1.16558 11.9364 1.51737 11.9918 1.76748 11.8049L3.96877 10.1603V15.993V22.299M0.982974 11.6849L6.06843 24.1562M6.06843 24.1562H6.06825C5.51781 24.1558 5.00699 23.9701 4.62147 23.647C4.23558 23.3248 3.96833 22.8458 3.96877 22.299M6.06843 24.1562H12.1374H14.8626H20.9316H20.9317M6.06843 24.1562H20.9317M3.96877 22.299L4.21877 22.2992M3.96877 22.299V22.2992H4.21877M4.21877 22.2992C4.21839 22.7617 4.44444 23.1736 4.78204 23.4554L4.21877 22.2992ZM20.9317 24.1562C21.4821 24.1558 21.9928 23.9701 22.3783 23.6472L20.9317 24.1562ZM26.017 11.6849L26.017 11.6849C25.8344 11.9364 25.4826 11.9918 25.2325 11.8049L23.0312 10.1603V15.993V22.299V22.2992H22.7812C22.7816 22.7617 22.5556 23.1736 22.218 23.4554L26.017 11.6849ZM26.017 11.6849C26.1079 11.5596 26.1398 11.409 26.1187 11.2678C26.0976 11.1266 26.0229 10.9917 25.8987 10.8989C25.8987 10.8989 25.8987 10.8989 25.8987 10.8989L14.382 2.29468M26.017 11.6849L14.382 2.29468M14.382 2.29468C14.382 2.29466 14.382 2.29465 14.3819 2.29463C14.1208 2.09943 13.8105 1.99985 13.5 2M13.5 2C13.5 2 13.5001 2 13.5001 2L13.5 2.25L13.4999 2C13.4999 2 13.5 2 13.5 2ZM1.13343 11.425L1.13342 11.425L1.13343 11.425ZM20.9318 23.0285H20.9316H14.8626H12.1374H6.06843H6.06819C5.76836 23.0288 5.50953 22.9253 5.33784 22.7808C5.16475 22.6341 5.08782 22.4656 5.08752 22.2989C5.08752 22.2989 5.08752 22.2988 5.08752 22.2988L5.08752 15.993V9.32446L13.2841 3.20076C13.2841 3.20076 13.2841 3.20076 13.2841 3.20075C13.3509 3.15093 13.4254 3.12785 13.5 3.12772C13.5746 3.12785 13.6491 3.15094 13.7159 3.20076L21.9125 9.32446V15.993V22.2988C21.9122 22.4655 21.8353 22.6339 21.6623 22.7807C21.4906 22.9252 21.2317 23.0288 20.9318 23.0285Z" stroke="#5130FC" stroke-width="0.5"/>
</g>
<path d="M4.5 9.5625L13.5 2.8125L21.9375 9V23.0625H4.5V9.5625Z" fill="#5130FC"/>
<path d="M9 18C9 16.8954 9.89543 16 11 16H16C17.1046 16 18 16.8954 18 18V25H9V18Z" fill="#121212"/>
</g>
<defs>
<filter id="filter0_d_165_582" x="-3.37491" y="-2.25" width="33.7499" height="30.6562" filterUnits="userSpaceOnUse" color-interpolation-filters="sRGB">
<feFlood flood-opacity="0" result="BackgroundImageFix"/>
<feColorMatrix in="SourceAlpha" type="matrix" values="0 0 0 0 0 0 0 0 0 0 0 0 0 0 0 0 0 0 127 0" result="hardAlpha"/>
<feOffset/>
<feGaussianBlur stdDeviation="2"/>
<feComposite in2="hardAlpha" operator="out"/>
<feColorMatrix type="matrix" values="0 0 0 0 0.317657 0 0 0 0 0.189271 0 0 0 0 0.9875 0 0 0 0.42 0"/>
<feBlend mode="normal" in2="BackgroundImageFix" result="effect1_dropShadow_165_582"/>
<feBlend mode="normal" in="SourceGraphic" in2="effect1_dropShadow_165_582" result="shape"/>
</filter>
<clipPath id="clip0_165_582">
<rect width="27" height="27" fill="white"/>
</clipPath>
</defs>
</svg>
