<svg width="30" height="30" viewBox="0 0 30 30" fill="none" xmlns="http://www.w3.org/2000/svg">
<path fill-rule="evenodd" clip-rule="evenodd" d="M15.0063 1.8459C7.75415 1.8459 1.85224 7.74781 1.85224 15C1.85224 22.2522 7.75415 28.1541 15.0063 28.1541C22.2585 28.1541 28.1604 22.2522 28.1604 15C28.1604 7.74781 22.2585 1.8459 15.0063 1.8459ZM15.0063 28.75C11.3295 28.75 7.88094 27.3173 5.28181 24.7245C2.68269 22.1254 1.25 18.6705 1.25 15C1.25 11.3232 2.68269 7.8746 5.28181 5.27547C7.88094 2.67635 11.3359 1.25 15.0063 1.25C18.6768 1.25 22.1317 2.68269 24.7309 5.27547C27.33 7.8746 28.7627 11.3295 28.7627 15C28.7627 18.6768 27.33 22.1254 24.7309 24.7245C22.1317 27.3237 18.6768 28.75 15.0063 28.75Z" fill="#6D6D6D" stroke="#6D6D6D" stroke-width="0.5"/>
<path fill-rule="evenodd" clip-rule="evenodd" d="M11.5832 12.1221L15.0064 13.5231L18.4233 12.1221L15.0064 10.7212L11.5832 12.1221ZM15.0064 14.1444C14.9684 14.1444 14.9303 14.1381 14.8923 14.119L10.6766 12.3947C10.5625 12.3504 10.4865 12.2363 10.4865 12.1158C10.4865 11.9954 10.5625 11.8813 10.6766 11.8369L14.8923 10.1126C14.962 10.0809 15.0444 10.0809 15.1205 10.1126L19.3298 11.8432C19.4439 11.8876 19.5137 12.0017 19.5137 12.1221C19.5137 12.2426 19.4376 12.3567 19.3235 12.4011L15.1078 14.1254C15.0825 14.1381 15.0444 14.1444 15.0064 14.1444Z" fill="#6D6D6D"/>
<path fill-rule="evenodd" clip-rule="evenodd" d="M15.0064 19.8939C14.9557 19.8939 14.905 19.8812 14.8543 19.8559L10.6386 17.4469C10.5435 17.3962 10.4865 17.2948 10.4865 17.187V12.1156C10.4865 11.9508 10.6196 11.8176 10.7844 11.8176C10.9492 11.8176 11.0824 11.9508 11.0824 12.1156V17.0095L14.9937 19.241L18.9051 17.0095V12.1156C18.9051 11.9508 19.0382 11.8176 19.203 11.8176C19.3679 11.8176 19.501 11.9508 19.501 12.1156V17.187C19.501 17.2948 19.4439 17.3962 19.3488 17.4469L15.1332 19.8496C15.1078 19.8812 15.0571 19.8939 15.0064 19.8939Z" fill="#6D6D6D"/>
<path fill-rule="evenodd" clip-rule="evenodd" d="M15.0063 19.894C14.8415 19.894 14.7084 19.7608 14.7084 19.596V13.8399C14.7084 13.6751 14.8415 13.542 15.0063 13.542C15.1711 13.542 15.3043 13.6751 15.3043 13.8399V19.596C15.3043 19.7608 15.1711 19.894 15.0063 19.894Z" fill="#6D6D6D"/>
<path fill-rule="evenodd" clip-rule="evenodd" d="M15.0064 15.7352C14.9684 15.7352 14.9303 15.7289 14.8923 15.7162L10.6766 13.9919C10.5245 13.9285 10.4484 13.751 10.5118 13.5989C10.5752 13.4467 10.7527 13.3706 10.9049 13.434L15.0064 15.1076L19.1079 13.434C19.2601 13.3706 19.4376 13.4467 19.501 13.5989C19.5644 13.751 19.4883 13.9285 19.3362 13.9919L15.1205 15.7162C15.0825 15.7289 15.0444 15.7352 15.0064 15.7352Z" fill="#6D6D6D"/>
<mask id="path-6-inside-1_165_555" fill="white">
<path fill-rule="evenodd" clip-rule="evenodd" d="M15.0063 4.2674C9.09169 4.2674 4.27381 9.07895 4.27381 14.9999C4.27381 20.9145 9.08536 25.7324 15.0063 25.7324C20.9209 25.7324 25.7388 20.9208 25.7388 14.9999C25.7324 9.07895 20.9209 4.2674 15.0063 4.2674ZM15.0063 26.3283C8.75571 26.3283 3.67157 21.2441 3.67157 14.9999C3.67157 8.7493 8.75571 3.66516 15.0063 3.66516C21.2569 3.66516 26.3347 8.7493 26.3347 14.9999C26.3347 21.2441 21.2505 26.3283 15.0063 26.3283Z"/>
</mask>
<path fill-rule="evenodd" clip-rule="evenodd" d="M15.0063 4.2674C9.09169 4.2674 4.27381 9.07895 4.27381 14.9999C4.27381 20.9145 9.08536 25.7324 15.0063 25.7324C20.9209 25.7324 25.7388 20.9208 25.7388 14.9999C25.7324 9.07895 20.9209 4.2674 15.0063 4.2674ZM15.0063 26.3283C8.75571 26.3283 3.67157 21.2441 3.67157 14.9999C3.67157 8.7493 8.75571 3.66516 15.0063 3.66516C21.2569 3.66516 26.3347 8.7493 26.3347 14.9999C26.3347 21.2441 21.2505 26.3283 15.0063 26.3283Z" fill="#6D6D6D"/>
<path d="M25.7388 14.9999H26.7388L26.7388 14.9988L25.7388 14.9999ZM15.0063 3.2674C8.53979 3.2674 3.27381 8.52628 3.27381 14.9999H5.27381C5.27381 9.63162 9.64359 5.2674 15.0063 5.2674V3.2674ZM3.27381 14.9999C3.27381 21.4664 8.53269 26.7324 15.0063 26.7324V24.7324C9.63802 24.7324 5.27381 20.3626 5.27381 14.9999H3.27381ZM15.0063 26.7324C21.4728 26.7324 26.7388 21.4735 26.7388 14.9999H24.7388C24.7388 20.3681 20.369 24.7324 15.0063 24.7324V26.7324ZM26.7388 14.9988C26.7318 8.52702 21.4738 3.2674 15.0063 3.2674V5.2674C20.368 5.2674 24.733 9.63087 24.7388 15.0009L26.7388 14.9988ZM15.0063 25.3283C9.30763 25.3283 4.67157 20.6915 4.67157 14.9999H2.67157C2.67157 21.7968 8.20379 27.3283 15.0063 27.3283V25.3283ZM4.67157 14.9999C4.67157 9.30159 9.30799 4.66516 15.0063 4.66516V2.66516C8.20343 2.66516 2.67157 8.19702 2.67157 14.9999H4.67157ZM15.0063 4.66516C20.7039 4.66516 25.3347 9.30086 25.3347 14.9999H27.3347C27.3347 8.19775 21.8099 2.66516 15.0063 2.66516V4.66516ZM25.3347 14.9999C25.3347 20.6918 20.6982 25.3283 15.0063 25.3283V27.3283C21.8028 27.3283 27.3347 21.7964 27.3347 14.9999H25.3347Z" fill="#6D6D6D" mask="url(#path-6-inside-1_165_555)"/>
<mask id="path-8-inside-2_165_555" fill="white">
<path fill-rule="evenodd" clip-rule="evenodd" d="M15.0063 6.36637C14.3597 6.36637 13.8272 5.8402 13.8272 5.18725V3.99546C13.8272 3.83064 13.9603 3.69751 14.1252 3.69751C14.29 3.69751 14.4231 3.83064 14.4231 3.99546V5.18725C14.4231 5.50422 14.683 5.76413 15 5.76413C15.317 5.76413 15.5769 5.50422 15.5769 5.18725V3.99546C15.5769 3.83064 15.71 3.69751 15.8748 3.69751C16.0396 3.69751 16.1728 3.83064 16.1728 3.99546V5.18725C16.1791 5.8402 15.6529 6.36637 15.0063 6.36637Z"/>
</mask>
<path fill-rule="evenodd" clip-rule="evenodd" d="M15.0063 6.36637C14.3597 6.36637 13.8272 5.8402 13.8272 5.18725V3.99546C13.8272 3.83064 13.9603 3.69751 14.1252 3.69751C14.29 3.69751 14.4231 3.83064 14.4231 3.99546V5.18725C14.4231 5.50422 14.683 5.76413 15 5.76413C15.317 5.76413 15.5769 5.50422 15.5769 5.18725V3.99546C15.5769 3.83064 15.71 3.69751 15.8748 3.69751C16.0396 3.69751 16.1728 3.83064 16.1728 3.99546V5.18725C16.1791 5.8402 15.6529 6.36637 15.0063 6.36637Z" fill="#6D6D6D"/>
<path d="M16.1728 5.18725H15.1727L15.1728 5.19696L16.1728 5.18725ZM15.0063 5.36637C14.9085 5.36637 14.8272 5.28442 14.8272 5.18725H12.8272C12.8272 6.39598 13.8109 7.36637 15.0063 7.36637V5.36637ZM14.8272 5.18725V3.99546H12.8272V5.18725H14.8272ZM14.8272 3.99546C14.8272 4.38292 14.5126 4.69751 14.1252 4.69751V2.69751C13.4081 2.69751 12.8272 3.27835 12.8272 3.99546H14.8272ZM14.1252 4.69751C13.7377 4.69751 13.4231 4.38292 13.4231 3.99546H15.4231C15.4231 3.27835 14.8423 2.69751 14.1252 2.69751V4.69751ZM13.4231 3.99546V5.18725H15.4231V3.99546H13.4231ZM13.4231 5.18725C13.4231 6.0565 14.1307 6.76413 15 6.76413V4.76413C15.2353 4.76413 15.4231 4.95193 15.4231 5.18725H13.4231ZM15 6.76413C15.8692 6.76413 16.5769 6.0565 16.5769 5.18725H14.5769C14.5769 4.95193 14.7647 4.76413 15 4.76413V6.76413ZM16.5769 5.18725V3.99546H14.5769V5.18725H16.5769ZM16.5769 3.99546C16.5769 4.38292 16.2623 4.69751 15.8748 4.69751V2.69751C15.1577 2.69751 14.5769 3.27835 14.5769 3.99546H16.5769ZM15.8748 4.69751C15.4874 4.69751 15.1728 4.38292 15.1728 3.99546H17.1728C17.1728 3.27835 16.5919 2.69751 15.8748 2.69751V4.69751ZM15.1728 3.99546V5.18725H17.1728V3.99546H15.1728ZM15.1728 5.19696C15.1737 5.29173 15.099 5.36637 15.0063 5.36637V7.36637C16.2069 7.36637 17.1845 6.38867 17.1727 5.17754L15.1728 5.19696Z" fill="#6D6D6D" mask="url(#path-8-inside-2_165_555)"/>
<mask id="path-10-inside-3_165_555" fill="white">
<path fill-rule="evenodd" clip-rule="evenodd" d="M25.9988 16.1729H24.807C24.1604 16.1729 23.6279 15.6468 23.6279 14.9938C23.6279 14.3472 24.1541 13.8147 24.807 13.8147H25.9988C26.1637 13.8147 26.2968 13.9478 26.2968 14.1126C26.2968 14.2775 26.1637 14.4106 25.9988 14.4106H24.807C24.4901 14.4106 24.2302 14.6705 24.2302 14.9875C24.2302 15.3044 24.4901 15.5644 24.807 15.5644H25.9988C26.1637 15.5644 26.2968 15.6975 26.2968 15.8623C26.3031 16.0398 26.1637 16.1729 25.9988 16.1729Z"/>
</mask>
<path fill-rule="evenodd" clip-rule="evenodd" d="M25.9988 16.1729H24.807C24.1604 16.1729 23.6279 15.6468 23.6279 14.9938C23.6279 14.3472 24.1541 13.8147 24.807 13.8147H25.9988C26.1637 13.8147 26.2968 13.9478 26.2968 14.1126C26.2968 14.2775 26.1637 14.4106 25.9988 14.4106H24.807C24.4901 14.4106 24.2302 14.6705 24.2302 14.9875C24.2302 15.3044 24.4901 15.5644 24.807 15.5644H25.9988C26.1637 15.5644 26.2968 15.6975 26.2968 15.8623C26.3031 16.0398 26.1637 16.1729 25.9988 16.1729Z" fill="#6D6D6D"/>
<path d="M26.2968 15.8623H25.2968V15.8802L25.2974 15.898L26.2968 15.8623ZM25.9988 15.1729H24.807V17.1729H25.9988V15.1729ZM24.807 15.1729C24.7092 15.1729 24.6279 15.091 24.6279 14.9938H22.6279C22.6279 16.2025 23.6117 17.1729 24.807 17.1729V15.1729ZM24.6279 14.9938C24.6279 14.896 24.7099 14.8147 24.807 14.8147V12.8147C23.5983 12.8147 22.6279 13.7984 22.6279 14.9938H24.6279ZM24.807 14.8147H25.9988V12.8147H24.807V14.8147ZM25.9988 14.8147C25.6114 14.8147 25.2968 14.5001 25.2968 14.1126H27.2968C27.2968 13.3955 26.716 12.8147 25.9988 12.8147V14.8147ZM25.2968 14.1126C25.2968 13.7252 25.6114 13.4106 25.9988 13.4106V15.4106C26.716 15.4106 27.2968 14.8297 27.2968 14.1126H25.2968ZM25.9988 13.4106H24.807V15.4106H25.9988V13.4106ZM24.807 13.4106C23.9378 13.4106 23.2302 14.1182 23.2302 14.9875H25.2302C25.2302 15.2228 25.0424 15.4106 24.807 15.4106V13.4106ZM23.2302 14.9875C23.2302 15.8567 23.9378 16.5644 24.807 16.5644V14.5644C25.0424 14.5644 25.2302 14.7522 25.2302 14.9875H23.2302ZM24.807 16.5644H25.9988V14.5644H24.807V16.5644ZM25.9988 16.5644C25.6114 16.5644 25.2968 16.2498 25.2968 15.8623H27.2968C27.2968 15.1452 26.716 14.5644 25.9988 14.5644V16.5644ZM25.2974 15.898C25.2828 15.4892 25.6179 15.1729 25.9988 15.1729V17.1729C26.7094 17.1729 27.3234 16.5904 27.2961 15.8266L25.2974 15.898Z" fill="#6D6D6D" mask="url(#path-10-inside-3_165_555)"/>
<mask id="path-12-inside-4_165_555" fill="white">
<path fill-rule="evenodd" clip-rule="evenodd" d="M15.8812 26.2968C15.7164 26.2968 15.5833 26.1637 15.5833 25.9988V24.807C15.5833 24.4901 15.3234 24.2302 15.0064 24.2302C14.6894 24.2302 14.4295 24.4901 14.4295 24.807V25.9988C14.4295 26.1637 14.2964 26.2968 14.1316 26.2968C13.9667 26.2968 13.8336 26.1637 13.8336 25.9988V24.807C13.8336 24.1604 14.3598 23.6279 15.0127 23.6279C15.6593 23.6279 16.1918 24.1541 16.1918 24.807V25.9988C16.1792 26.1573 16.046 26.2968 15.8812 26.2968Z"/>
</mask>
<path fill-rule="evenodd" clip-rule="evenodd" d="M15.8812 26.2968C15.7164 26.2968 15.5833 26.1637 15.5833 25.9988V24.807C15.5833 24.4901 15.3234 24.2302 15.0064 24.2302C14.6894 24.2302 14.4295 24.4901 14.4295 24.807V25.9988C14.4295 26.1637 14.2964 26.2968 14.1316 26.2968C13.9667 26.2968 13.8336 26.1637 13.8336 25.9988V24.807C13.8336 24.1604 14.3598 23.6279 15.0127 23.6279C15.6593 23.6279 16.1918 24.1541 16.1918 24.807V25.9988C16.1792 26.1573 16.046 26.2968 15.8812 26.2968Z" fill="#6D6D6D"/>
<path d="M16.1918 25.9988L17.1887 26.0786L17.1918 26.0388V25.9988H16.1918ZM15.8812 25.2968C16.2687 25.2968 16.5833 25.6114 16.5833 25.9988H14.5833C14.5833 26.7159 15.1641 27.2968 15.8812 27.2968V25.2968ZM16.5833 25.9988V24.807H14.5833V25.9988H16.5833ZM16.5833 24.807C16.5833 23.9378 15.8756 23.2302 15.0064 23.2302V25.2302C14.7711 25.2302 14.5833 25.0424 14.5833 24.807H16.5833ZM15.0064 23.2302C14.1371 23.2302 13.4295 23.9378 13.4295 24.807H15.4295C15.4295 25.0424 15.2417 25.2302 15.0064 25.2302V23.2302ZM13.4295 24.807V25.9988H15.4295V24.807H13.4295ZM13.4295 25.9988C13.4295 25.6114 13.7441 25.2968 14.1316 25.2968V27.2968C14.8487 27.2968 15.4295 26.7159 15.4295 25.9988H13.4295ZM14.1316 25.2968C14.519 25.2968 14.8336 25.6114 14.8336 25.9988H12.8336C12.8336 26.7159 13.4145 27.2968 14.1316 27.2968V25.2968ZM14.8336 25.9988V24.807H12.8336V25.9988H14.8336ZM14.8336 24.807C14.8336 24.7092 14.9156 24.6279 15.0127 24.6279V22.6279C13.804 22.6279 12.8336 23.6117 12.8336 24.807H14.8336ZM15.0127 24.6279C15.1106 24.6279 15.1918 24.7099 15.1918 24.807H17.1918C17.1918 23.5983 16.2081 22.6279 15.0127 22.6279V24.6279ZM15.1918 24.807V25.9988H17.1918V24.807H15.1918ZM15.195 25.9191C15.2191 25.6181 15.4664 25.2968 15.8812 25.2968V27.2968C16.6257 27.2968 17.1392 26.6965 17.1887 26.0786L15.195 25.9191Z" fill="#6D6D6D" mask="url(#path-12-inside-4_165_555)"/>
<mask id="path-14-inside-5_165_555" fill="white">
<path fill-rule="evenodd" clip-rule="evenodd" d="M5.19946 16.1731H4.00767C3.84284 16.1731 3.70972 16.0399 3.70972 15.8751C3.70972 15.7103 3.84284 15.5772 4.00767 15.5772H5.19946C5.51643 15.5772 5.77634 15.3173 5.77634 15.0003C5.77634 14.6833 5.51643 14.4234 5.19946 14.4234H4.00767C3.84284 14.4234 3.70972 14.2903 3.70972 14.1255C3.70972 13.9606 3.84284 13.8275 4.00767 13.8275H5.19946C5.84607 13.8275 6.37857 14.3537 6.37857 15.0066C6.37223 15.6469 5.84607 16.1731 5.19946 16.1731Z"/>
</mask>
<path fill-rule="evenodd" clip-rule="evenodd" d="M5.19946 16.1731H4.00767C3.84284 16.1731 3.70972 16.0399 3.70972 15.8751C3.70972 15.7103 3.84284 15.5772 4.00767 15.5772H5.19946C5.51643 15.5772 5.77634 15.3173 5.77634 15.0003C5.77634 14.6833 5.51643 14.4234 5.19946 14.4234H4.00767C3.84284 14.4234 3.70972 14.2903 3.70972 14.1255C3.70972 13.9606 3.84284 13.8275 4.00767 13.8275H5.19946C5.84607 13.8275 6.37857 14.3537 6.37857 15.0066C6.37223 15.6469 5.84607 16.1731 5.19946 16.1731Z" fill="#6D6D6D"/>
<path d="M6.37857 15.0066L7.37857 15.0165V15.0066H6.37857ZM5.19946 15.1731H4.00767V17.1731H5.19946V15.1731ZM4.00767 15.1731C4.39512 15.1731 4.70972 15.4876 4.70972 15.8751H2.70972C2.70972 16.5922 3.29056 17.1731 4.00767 17.1731V15.1731ZM4.70972 15.8751C4.70972 16.2626 4.39513 16.5772 4.00767 16.5772V14.5772C3.29056 14.5772 2.70972 15.158 2.70972 15.8751H4.70972ZM4.00767 16.5772H5.19946V14.5772H4.00767V16.5772ZM5.19946 16.5772C6.06871 16.5772 6.77634 15.8695 6.77634 15.0003H4.77634C4.77634 14.765 4.96414 14.5772 5.19946 14.5772V16.5772ZM6.77634 15.0003C6.77634 14.131 6.06871 13.4234 5.19946 13.4234V15.4234C4.96414 15.4234 4.77634 15.2356 4.77634 15.0003H6.77634ZM5.19946 13.4234H4.00767V15.4234H5.19946V13.4234ZM4.00767 13.4234C4.39513 13.4234 4.70972 13.738 4.70972 14.1255H2.70972C2.70972 14.8426 3.29056 15.4234 4.00767 15.4234V13.4234ZM4.70972 14.1255C4.70972 14.5129 4.39513 14.8275 4.00767 14.8275V12.8275C3.29056 12.8275 2.70972 13.4084 2.70972 14.1255H4.70972ZM4.00767 14.8275H5.19946V12.8275H4.00767V14.8275ZM5.19946 14.8275C5.29729 14.8275 5.37857 14.9095 5.37857 15.0066H7.37857C7.37857 13.7979 6.39485 12.8275 5.19946 12.8275V14.8275ZM5.37862 14.9967C5.37769 15.0909 5.29536 15.1731 5.19946 15.1731V17.1731C6.39678 17.1731 7.36678 16.2029 7.37852 15.0165L5.37862 14.9967Z" fill="#6D6D6D" mask="url(#path-14-inside-5_165_555)"/>
<mask id="path-16-inside-6_165_555" fill="white">
<path fill-rule="evenodd" clip-rule="evenodd" d="M19.4692 7.56421C19.4185 7.56421 19.3678 7.55153 19.3171 7.52618C19.1713 7.44377 19.1269 7.25993 19.2093 7.11412L20.2617 5.29473C20.3441 5.14893 20.5279 5.10455 20.6737 5.18697C20.8195 5.26938 20.8639 5.45322 20.7815 5.59902L19.7292 7.41841C19.6721 7.5135 19.5707 7.56421 19.4692 7.56421Z"/>
</mask>
<path fill-rule="evenodd" clip-rule="evenodd" d="M19.4692 7.56421C19.4185 7.56421 19.3678 7.55153 19.3171 7.52618C19.1713 7.44377 19.1269 7.25993 19.2093 7.11412L20.2617 5.29473C20.3441 5.14893 20.5279 5.10455 20.6737 5.18697C20.8195 5.26938 20.8639 5.45322 20.7815 5.59902L19.7292 7.41841C19.6721 7.5135 19.5707 7.56421 19.4692 7.56421Z" fill="#6D6D6D"/>
<path d="M19.3171 7.52618L18.825 8.39674L18.8472 8.40924L18.8699 8.4206L19.3171 7.52618ZM19.2093 7.11412L18.3437 6.61342L18.3388 6.62206L19.2093 7.11412ZM20.2617 5.29473L21.1273 5.79544L21.1322 5.78679L20.2617 5.29473ZM20.7815 5.59902L21.6472 6.09973L21.6521 6.09108L20.7815 5.59902ZM19.7292 7.41841L20.5867 7.9329L20.5908 7.92603L20.5948 7.91909L19.7292 7.41841ZM19.4692 6.56421C19.5913 6.56421 19.6927 6.59596 19.7643 6.63175L18.8699 8.4206C19.0429 8.50711 19.2458 8.56421 19.4692 8.56421V6.56421ZM19.8092 6.65561C20.1782 6.86421 20.2496 7.30597 20.0799 7.60618L18.3388 6.62206C18.0043 7.21388 18.1644 8.02332 18.825 8.39674L19.8092 6.65561ZM20.075 7.6148L21.1273 5.79541L19.396 4.79405L18.3437 6.61344L20.075 7.6148ZM21.1322 5.78679C20.9236 6.15584 20.4819 6.22721 20.1817 6.05753L21.1658 4.3164C20.574 3.98189 19.7645 4.14202 19.3911 4.80268L21.1322 5.78679ZM20.1817 6.05753C19.8126 5.84893 19.7412 5.40717 19.9109 5.10696L21.6521 6.09108C21.9866 5.49926 21.8264 4.68982 21.1658 4.3164L20.1817 6.05753ZM19.9159 5.09834L18.8635 6.91773L20.5948 7.91909L21.6471 6.0997L19.9159 5.09834ZM18.8717 6.90391C19.0086 6.67571 19.246 6.56421 19.4692 6.56421V8.56421C19.8954 8.56421 20.3356 8.35128 20.5867 7.9329L18.8717 6.90391Z" fill="#6D6D6D" mask="url(#path-16-inside-6_165_555)"/>
<mask id="path-18-inside-7_165_555" fill="white">
<path fill-rule="evenodd" clip-rule="evenodd" d="M22.7404 10.8353C22.639 10.8353 22.5375 10.7846 22.4805 10.6832C22.3981 10.5373 22.4488 10.3535 22.5883 10.2711L24.4076 9.21877C24.5534 9.13636 24.7373 9.18707 24.8197 9.32654C24.9021 9.47234 24.8514 9.65618 24.7119 9.73859L22.8925 10.7909C22.8418 10.8226 22.7911 10.8353 22.7404 10.8353Z"/>
</mask>
<path fill-rule="evenodd" clip-rule="evenodd" d="M22.7404 10.8353C22.639 10.8353 22.5375 10.7846 22.4805 10.6832C22.3981 10.5373 22.4488 10.3535 22.5883 10.2711L24.4076 9.21877C24.5534 9.13636 24.7373 9.18707 24.8197 9.32654C24.9021 9.47234 24.8514 9.65618 24.7119 9.73859L22.8925 10.7909C22.8418 10.8226 22.7911 10.8353 22.7404 10.8353Z" fill="#6D6D6D"/>
<path d="M22.4805 10.6832L23.3521 10.1929L23.3511 10.1911L22.4805 10.6832ZM22.5883 10.2711L22.0876 9.40543L22.0795 9.41017L22.5883 10.2711ZM24.4076 9.21877L23.9156 8.34816L23.907 8.35314L24.4076 9.21877ZM24.8197 9.32654L25.6903 8.83448L25.6855 8.8261L25.6806 8.81781L24.8197 9.32654ZM24.7119 9.73859L25.2126 10.6043L25.2207 10.5995L24.7119 9.73859ZM22.8925 10.7909L22.3919 9.92529L22.3771 9.93386L22.3625 9.94292L22.8925 10.7909ZM22.7404 9.8353C22.9726 9.8353 23.2188 9.95605 23.3521 10.1929L21.6089 11.1734C21.8562 11.6131 22.3054 11.8353 22.7404 11.8353V9.8353ZM23.3511 10.1911C23.5354 10.5173 23.4288 10.936 23.097 11.132L22.0795 9.41017C21.4688 9.77104 21.2607 10.5574 21.6099 11.1752L23.3511 10.1911ZM23.0889 11.1367L24.9083 10.0844L23.907 8.35314L22.0876 9.40546L23.0889 11.1367ZM24.8997 10.0893C24.5735 10.2737 24.1548 10.167 23.9588 9.83527L25.6806 8.81781C25.3198 8.20711 24.5334 7.999 23.9156 8.34821L24.8997 10.0893ZM23.9491 9.81859C23.7648 9.49237 23.8714 9.07371 24.2032 8.87767L25.2207 10.5995C25.8314 10.2387 26.0395 9.45231 25.6903 8.83448L23.9491 9.81859ZM24.2113 8.87296L22.3919 9.92529L23.3932 11.6566L25.2126 10.6042L24.2113 8.87296ZM22.3625 9.94292C22.4767 9.87155 22.6109 9.8353 22.7404 9.8353V11.8353C22.9714 11.8353 23.2069 11.7737 23.4225 11.6389L22.3625 9.94292Z" fill="#6D6D6D" mask="url(#path-18-inside-7_165_555)"/>
<mask id="path-20-inside-8_165_555" fill="white">
<path fill-rule="evenodd" clip-rule="evenodd" d="M24.5597 20.8133C24.509 20.8133 24.4583 20.8006 24.4076 20.7752L22.5882 19.7229C22.4424 19.6405 22.3917 19.4567 22.4804 19.3108C22.5628 19.165 22.7467 19.1207 22.8925 19.2031L24.7119 20.2554C24.8577 20.3378 24.9021 20.5217 24.8196 20.6675C24.7626 20.7626 24.6612 20.8133 24.5597 20.8133Z"/>
</mask>
<path fill-rule="evenodd" clip-rule="evenodd" d="M24.5597 20.8133C24.509 20.8133 24.4583 20.8006 24.4076 20.7752L22.5882 19.7229C22.4424 19.6405 22.3917 19.4567 22.4804 19.3108C22.5628 19.165 22.7467 19.1207 22.8925 19.2031L24.7119 20.2554C24.8577 20.3378 24.9021 20.5217 24.8196 20.6675C24.7626 20.7626 24.6612 20.8133 24.5597 20.8133Z" fill="#6D6D6D"/>
<path d="M24.4076 20.7752L23.9069 21.6409L23.9332 21.6561L23.9604 21.6697L24.4076 20.7752ZM22.5882 19.7229L23.0889 18.8572L23.0803 18.8523L22.5882 19.7229ZM22.4804 19.3108L23.3346 19.8308L23.343 19.817L23.351 19.8029L22.4804 19.3108ZM22.8925 19.2031L23.3932 18.3374L23.3845 18.3325L22.8925 19.2031ZM24.7119 20.2554L24.2112 21.1211L24.2198 21.126L24.7119 20.2554ZM24.8196 20.6675L25.6771 21.182L25.6838 21.1708L25.6902 21.1595L24.8196 20.6675ZM24.5597 19.8133C24.6818 19.8133 24.7832 19.845 24.8548 19.8808L23.9604 21.6697C24.1334 21.7562 24.3362 21.8133 24.5597 21.8133V19.8133ZM24.9083 19.9096L23.0889 18.8573L22.0875 20.5885L23.9069 21.6409L24.9083 19.9096ZM23.0803 18.8523C23.4177 19.043 23.5448 19.4856 23.3346 19.8308L21.6262 18.7909C21.2386 19.4277 21.4671 20.2379 22.0961 20.5935L23.0803 18.8523ZM23.351 19.8029C23.1424 20.172 22.7006 20.2433 22.4004 20.0736L23.3845 18.3325C22.7927 17.998 21.9833 18.1581 21.6099 18.8188L23.351 19.8029ZM22.3918 20.0687L24.2112 21.121L25.2126 19.3898L23.3932 18.3374L22.3918 20.0687ZM24.2198 21.126C23.8508 20.9174 23.7794 20.4756 23.9491 20.1754L25.6902 21.1595C26.0247 20.5677 25.8646 19.7583 25.2039 19.3848L24.2198 21.126ZM23.9622 20.153C24.0991 19.9248 24.3365 19.8133 24.5597 19.8133V21.8133C24.9859 21.8133 25.4261 21.6004 25.6771 21.182L23.9622 20.153Z" fill="#6D6D6D" mask="url(#path-20-inside-8_165_555)"/>
<mask id="path-22-inside-9_165_555" fill="white">
<path fill-rule="evenodd" clip-rule="evenodd" d="M20.5215 24.8513C20.4201 24.8513 20.3187 24.8005 20.2616 24.6991L19.2093 22.8797C19.1269 22.7339 19.1776 22.5501 19.3171 22.4677C19.4629 22.3853 19.6467 22.436 19.7291 22.5754L20.7815 24.3948C20.8639 24.5406 20.8132 24.7245 20.6737 24.8069C20.623 24.8386 20.5723 24.8513 20.5215 24.8513Z"/>
</mask>
<path fill-rule="evenodd" clip-rule="evenodd" d="M20.5215 24.8513C20.4201 24.8513 20.3187 24.8005 20.2616 24.6991L19.2093 22.8797C19.1269 22.7339 19.1776 22.5501 19.3171 22.4677C19.4629 22.3853 19.6467 22.436 19.7291 22.5754L20.7815 24.3948C20.8639 24.5406 20.8132 24.7245 20.6737 24.8069C20.623 24.8386 20.5723 24.8513 20.5215 24.8513Z" fill="#6D6D6D"/>
<path d="M20.2616 24.6991L21.1333 24.2088L21.1273 24.1984L20.2616 24.6991ZM19.2093 22.8797L18.3387 23.3718L18.3437 23.3804L19.2093 22.8797ZM19.3171 22.4677L18.825 21.5971L18.8166 21.6018L18.8083 21.6067L19.3171 22.4677ZM19.7291 22.5754L20.5948 22.0747L20.5901 22.0667L19.7291 22.5754ZM20.7815 24.3948L21.6521 23.9027L21.6471 23.8941L20.7815 24.3948ZM20.6737 24.8069L20.165 23.946L20.1542 23.9523L20.1437 23.9589L20.6737 24.8069ZM20.5215 23.8513C20.7537 23.8513 21 23.972 21.1332 24.2089L19.3901 25.1894C19.6374 25.6291 20.0865 25.8513 20.5215 25.8513V23.8513ZM21.1273 24.1984L20.0749 22.379L18.3437 23.3804L19.396 25.1998L21.1273 24.1984ZM20.0799 22.3877C20.2643 22.7139 20.1576 23.1326 19.8258 23.3286L18.8083 21.6067C18.1976 21.9676 17.9895 22.754 18.3387 23.3718L20.0799 22.3877ZM19.8091 23.3382C19.4829 23.5226 19.0643 23.4159 18.8682 23.0842L20.5901 22.0667C20.2292 21.456 19.4428 21.2479 18.825 21.5971L19.8091 23.3382ZM18.8635 23.0761L19.9158 24.8955L21.6471 23.8941L20.5948 22.0748L18.8635 23.0761ZM19.9109 24.8869C19.7265 24.5607 19.8332 24.142 20.165 23.946L21.1824 25.6678C21.7931 25.3069 22.0012 24.5206 21.652 23.9028L19.9109 24.8869ZM20.1437 23.9589C20.2579 23.8875 20.392 23.8513 20.5215 23.8513V25.8513C20.7525 25.8513 20.9881 25.7896 21.2037 25.6549L20.1437 23.9589Z" fill="#6D6D6D" mask="url(#path-22-inside-9_165_555)"/>
<mask id="path-24-inside-10_165_555" fill="white">
<path fill-rule="evenodd" clip-rule="evenodd" d="M9.48481 24.8512C9.4341 24.8512 9.38338 24.8385 9.33267 24.8132C9.18686 24.7308 9.14249 24.5469 9.2249 24.4011L10.2772 22.5817C10.3596 22.4359 10.5435 22.3915 10.6893 22.474C10.8351 22.5564 10.8795 22.7402 10.7971 22.886L9.74472 24.7054C9.69401 24.8005 9.59258 24.8512 9.48481 24.8512Z"/>
</mask>
<path fill-rule="evenodd" clip-rule="evenodd" d="M9.48481 24.8512C9.4341 24.8512 9.38338 24.8385 9.33267 24.8132C9.18686 24.7308 9.14249 24.5469 9.2249 24.4011L10.2772 22.5817C10.3596 22.4359 10.5435 22.3915 10.6893 22.474C10.8351 22.5564 10.8795 22.7402 10.7971 22.886L9.74472 24.7054C9.69401 24.8005 9.59258 24.8512 9.48481 24.8512Z" fill="#6D6D6D"/>
<path d="M9.33267 24.8132L8.84061 25.6837L8.86273 25.6962L8.88545 25.7076L9.33267 24.8132ZM9.2249 24.4011L8.35922 23.9004L8.35434 23.9091L9.2249 24.4011ZM10.2772 22.5817L11.1429 23.0824L11.1478 23.0738L10.2772 22.5817ZM10.7971 22.886L11.6627 23.3867L11.6676 23.3781L10.7971 22.886ZM9.74472 24.7054L8.87909 24.2047L8.87047 24.2196L8.86237 24.2348L9.74472 24.7054ZM9.48481 23.8512C9.60687 23.8512 9.70831 23.883 9.77988 23.9187L8.88545 25.7076C9.05845 25.7941 9.26133 25.8512 9.48481 25.8512V23.8512ZM9.82472 23.9426C10.1938 24.1512 10.2651 24.593 10.0955 24.8932L8.35434 23.9091C8.01983 24.5009 8.17995 25.3103 8.84061 25.6837L9.82472 23.9426ZM10.0905 24.9018L11.1429 23.0824L9.41159 22.081L8.35927 23.9004L10.0905 24.9018ZM11.1478 23.0738C10.9392 23.4428 10.4974 23.5142 10.1972 23.3445L11.1813 21.6034C10.5895 21.2689 9.78008 21.429 9.40666 22.0897L11.1478 23.0738ZM10.1972 23.3445C9.82817 23.1359 9.7568 22.6942 9.92649 22.394L11.6676 23.3781C12.0021 22.7862 11.842 21.9768 11.1813 21.6034L10.1972 23.3445ZM9.93142 22.3853L8.87909 24.2047L10.6104 25.2061L11.6627 23.3867L9.93142 22.3853ZM8.86237 24.2348C9.0153 23.9481 9.29134 23.8512 9.48481 23.8512V25.8512C9.89382 25.8512 10.3727 25.6529 10.6271 25.176L8.86237 24.2348Z" fill="#6D6D6D" mask="url(#path-24-inside-10_165_555)"/>
<mask id="path-26-inside-11_165_555" fill="white">
<path fill-rule="evenodd" clip-rule="evenodd" d="M5.44655 20.8133C5.34512 20.8133 5.24369 20.7626 5.18663 20.6612C5.10422 20.5154 5.15494 20.3315 5.2944 20.2491L7.11379 19.1968C7.25959 19.1144 7.44343 19.1651 7.52585 19.3046C7.60826 19.4504 7.55754 19.6342 7.41808 19.7166L5.59869 20.7689C5.55432 20.8006 5.49726 20.8133 5.44655 20.8133Z"/>
</mask>
<path fill-rule="evenodd" clip-rule="evenodd" d="M5.44655 20.8133C5.34512 20.8133 5.24369 20.7626 5.18663 20.6612C5.10422 20.5154 5.15494 20.3315 5.2944 20.2491L7.11379 19.1968C7.25959 19.1144 7.44343 19.1651 7.52585 19.3046C7.60826 19.4504 7.55754 19.6342 7.41808 19.7166L5.59869 20.7689C5.55432 20.8006 5.49726 20.8133 5.44655 20.8133Z" fill="#6D6D6D"/>
<path d="M5.18663 20.6612L6.05821 20.1709L6.0572 20.1691L5.18663 20.6612ZM5.2944 20.2491L4.7937 19.3835L4.78567 19.3882L5.2944 20.2491ZM7.11379 19.1968L6.62171 18.3262L6.61311 18.3312L7.11379 19.1968ZM7.52585 19.3046L8.39641 18.8125L8.39167 18.8041L8.38677 18.7958L7.52585 19.3046ZM7.41808 19.7166L7.91878 20.5823L7.92681 20.5775L7.41808 19.7166ZM5.59869 20.7689L5.09801 19.9033L5.05649 19.9273L5.01745 19.9552L5.59869 20.7689ZM5.44655 19.8133C5.67872 19.8133 5.92498 19.9341 6.05821 20.1709L4.31506 21.1514C4.56239 21.5911 5.01151 21.8133 5.44655 21.8133V19.8133ZM6.0572 20.1691C6.24158 20.4953 6.1349 20.914 5.80313 21.1101L4.78567 19.3882C4.17498 19.7491 3.96687 20.5354 4.31607 21.1532L6.0572 20.1691ZM5.79508 21.1148L7.61447 20.0624L6.61311 18.3312L4.79372 19.3835L5.79508 21.1148ZM7.60585 20.0674C7.27963 20.2517 6.86096 20.1451 6.66492 19.8133L8.38677 18.7958C8.02591 18.1851 7.23956 17.977 6.62173 18.3262L7.60585 20.0674ZM6.65528 19.7966C6.4709 19.4704 6.57758 19.0517 6.90935 18.8557L7.92681 20.5775C8.5375 20.2167 8.74562 19.4303 8.39641 18.8125L6.65528 19.7966ZM6.9174 18.851L5.09801 19.9033L6.09937 21.6346L7.91876 20.5823L6.9174 18.851ZM5.01745 19.9552C5.10779 19.8907 5.1949 19.8565 5.26187 19.8383C5.32908 19.8199 5.39126 19.8133 5.44655 19.8133V21.8133C5.64008 21.8133 5.91941 21.7688 6.17993 21.5827L5.01745 19.9552Z" fill="#6D6D6D" mask="url(#path-26-inside-11_165_555)"/>
<mask id="path-28-inside-12_165_555" fill="white">
<path fill-rule="evenodd" clip-rule="evenodd" d="M7.27237 10.8346C7.22165 10.8346 7.17094 10.822 7.12022 10.7966L5.30084 9.74427C5.15503 9.66185 5.11066 9.47801 5.19307 9.33221C5.27548 9.1864 5.45932 9.14203 5.60513 9.22444L7.42451 10.2768C7.57032 10.3592 7.61469 10.543 7.53228 10.6888C7.47523 10.7776 7.3738 10.8346 7.27237 10.8346Z"/>
</mask>
<path fill-rule="evenodd" clip-rule="evenodd" d="M7.27237 10.8346C7.22165 10.8346 7.17094 10.822 7.12022 10.7966L5.30084 9.74427C5.15503 9.66185 5.11066 9.47801 5.19307 9.33221C5.27548 9.1864 5.45932 9.14203 5.60513 9.22444L7.42451 10.2768C7.57032 10.3592 7.61469 10.543 7.53228 10.6888C7.47523 10.7776 7.3738 10.8346 7.27237 10.8346Z" fill="#6D6D6D"/>
<path d="M7.12022 10.7966L6.61954 11.6622L6.64584 11.6774L6.67301 11.691L7.12022 10.7966ZM5.30084 9.74427L5.80154 8.87859L5.79289 8.8737L5.30084 9.74427ZM5.60513 9.22444L6.10583 8.35877L6.09718 8.35388L5.60513 9.22444ZM7.42451 10.2768L6.92381 11.1424L6.93245 11.1473L7.42451 10.2768ZM7.53228 10.6888L8.37346 11.2296L8.38884 11.2057L8.40284 11.1809L7.53228 10.6888ZM7.27237 9.83463C7.39442 9.83463 7.49587 9.86638 7.56744 9.90217L6.67301 11.691C6.84601 11.7775 7.04888 11.8346 7.27237 11.8346V9.83463ZM7.6209 9.93096L5.80152 8.87863L4.80016 10.6099L6.61954 11.6622L7.6209 9.93096ZM5.79289 8.8737C6.16195 9.0823 6.23332 9.52405 6.06363 9.82427L4.32251 8.84015C3.988 9.43198 4.14812 10.2414 4.80878 10.6148L5.79289 8.8737ZM6.06363 9.82427C5.85504 10.1933 5.41328 10.2647 5.11307 10.095L6.09718 8.35388C5.50536 8.01937 4.69592 8.17949 4.32251 8.84015L6.06363 9.82427ZM5.10445 10.0901L6.92383 11.1424L7.92519 9.41114L6.1058 8.35881L5.10445 10.0901ZM6.93245 11.1473C6.5634 10.9387 6.49203 10.497 6.66172 10.1968L8.40284 11.1809C8.73735 10.5891 8.57723 9.77962 7.91657 9.40621L6.93245 11.1473ZM6.6911 10.1481C6.80823 9.96587 7.01576 9.83463 7.27237 9.83463V11.8346C7.73183 11.8346 8.14223 11.5893 8.37346 11.2296L6.6911 10.1481Z" fill="#6D6D6D" mask="url(#path-28-inside-12_165_555)"/>
<mask id="path-30-inside-13_165_555" fill="white">
<path fill-rule="evenodd" clip-rule="evenodd" d="M10.5371 7.56366C10.4357 7.56366 10.3343 7.51294 10.2772 7.41152L9.22487 5.59213C9.14246 5.44632 9.19318 5.26248 9.33264 5.18007C9.47845 5.09766 9.66229 5.14838 9.7447 5.28784L10.797 7.10723C10.8794 7.25303 10.8287 7.43687 10.6893 7.51928C10.6449 7.55098 10.5878 7.56366 10.5371 7.56366Z"/>
</mask>
<path fill-rule="evenodd" clip-rule="evenodd" d="M10.5371 7.56366C10.4357 7.56366 10.3343 7.51294 10.2772 7.41152L9.22487 5.59213C9.14246 5.44632 9.19318 5.26248 9.33264 5.18007C9.47845 5.09766 9.66229 5.14838 9.7447 5.28784L10.797 7.10723C10.8794 7.25303 10.8287 7.43687 10.6893 7.51928C10.6449 7.55098 10.5878 7.56366 10.5371 7.56366Z" fill="#6D6D6D"/>
<path d="M10.2772 7.41152L11.1488 6.92122L11.1428 6.91084L10.2772 7.41152ZM9.22487 5.59213L8.35427 6.08421L8.35924 6.09281L9.22487 5.59213ZM9.33264 5.18007L8.84058 4.30951L8.8322 4.31425L8.82391 4.31915L9.33264 5.18007ZM9.7447 5.28784L10.6104 4.78714L10.6056 4.77911L9.7447 5.28784ZM10.797 7.10723L11.6676 6.61515L11.6627 6.60655L10.797 7.10723ZM10.6893 7.51928L10.1805 6.65836L10.1433 6.68038L10.108 6.70555L10.6893 7.51928ZM10.5371 6.56366C10.7693 6.56366 11.0155 6.68441 11.1488 6.92125L9.40562 7.90178C9.65296 8.34148 10.1021 8.56366 10.5371 8.56366V6.56366ZM11.1428 6.91084L10.0905 5.09145L8.35924 6.09281L9.41157 7.9122L11.1428 6.91084ZM10.0954 5.10007C10.2798 5.42629 10.1731 5.84496 9.84137 6.041L8.82391 4.31915C8.21322 4.68001 8.0051 5.46636 8.35431 6.08419L10.0954 5.10007ZM9.8247 6.05064C9.49848 6.23502 9.07981 6.12834 8.88377 5.79657L10.6056 4.77911C10.2448 4.16842 9.45841 3.9603 8.84058 4.30951L9.8247 6.05064ZM8.87906 5.78852L9.93139 7.60791L11.6627 6.60655L10.6103 4.78716L8.87906 5.78852ZM9.92646 7.59929C9.74208 7.27307 9.84876 6.8544 10.1805 6.65836L11.198 8.38021C11.8087 8.01935 12.0168 7.233 11.6676 6.61517L9.92646 7.59929ZM10.108 6.70555C10.1984 6.64102 10.2855 6.60686 10.3524 6.58859C10.4197 6.57026 10.4818 6.56366 10.5371 6.56366V8.56366C10.7306 8.56366 11.01 8.51911 11.2705 8.33302L10.108 6.70555Z" fill="#6D6D6D" mask="url(#path-30-inside-13_165_555)"/>
<path fill-rule="evenodd" clip-rule="evenodd" d="M15.0063 7.64027L14.1885 8.99689L14.9175 8.78135C14.9746 8.76233 15.0317 8.76233 15.0887 8.78135L15.8177 8.99689L15.0063 7.64027ZM16.477 9.80832C16.4517 9.80832 16.42 9.80198 16.3946 9.79564L15.0063 9.38358L13.618 9.79564C13.4975 9.83368 13.3707 9.7893 13.2947 9.69421C13.2186 9.59912 13.2123 9.45966 13.2757 9.35823L14.7527 6.91125C14.8098 6.8225 14.9049 6.76544 15.0126 6.76544C15.1204 6.76544 15.2155 6.8225 15.2725 6.91125L16.7496 9.35823C16.813 9.466 16.8067 9.59912 16.7306 9.69421C16.6545 9.77028 16.5658 9.80832 16.477 9.80832Z" fill="#6D6D6D"/>
</svg>
