<svg width="30" height="30" viewBox="0 0 30 30" fill="none" xmlns="http://www.w3.org/2000/svg">
<path d="M15.5 19.7501C15.1906 19.9287 14.8094 19.9287 14.5 19.7501L2.39031 12.7585C2.09804 12.5898 1.72431 12.6899 1.55556 12.9822C1.38681 13.2745 1.48694 13.6482 1.77922 13.817L12.3418 19.9155C12.9995 20.2952 13.0106 21.2406 12.362 21.6356L8.40099 24.0477C8.24428 24.1431 8.06434 24.1936 7.88087 24.1936H6.11664C5.77914 24.1936 5.50553 24.4672 5.50553 24.8047C5.50553 25.1422 5.77914 25.4158 6.11664 25.4158H8.22372C8.4072 25.4158 8.58715 25.3653 8.74386 25.2699L14.4799 21.7767C14.7993 21.5821 15.2007 21.5821 15.5201 21.7767L21.2561 25.2699C21.4129 25.3653 21.5928 25.4158 21.7763 25.4158H23.8834C24.2209 25.4158 24.4945 25.1422 24.4945 24.8047C24.4945 24.4672 24.2209 24.1936 23.8834 24.1936H22.1191C21.9357 24.1936 21.7557 24.1431 21.599 24.0477L17.638 21.6356C16.9894 21.2406 17.0005 20.2952 17.6582 19.9155L28.2208 13.817C28.5131 13.6482 28.6132 13.2745 28.4444 12.9822C28.2757 12.6899 27.902 12.5898 27.6097 12.7585L15.5 19.7501Z" fill="#6D6D6D" stroke="#6D6D6D" stroke-width="0.2"/>
<path d="M6.84289 6.49856C5.40938 5.67093 3.57636 6.16205 2.74869 7.59554C1.92099 9.02908 2.41214 10.8622 3.8457 11.6898L12.5 16.6864C14.047 17.5796 15.953 17.5796 17.5 16.6864L26.1543 11.6898C27.5879 10.8622 28.079 9.02909 27.2513 7.59556C26.4237 6.16206 24.5907 5.67092 23.1571 6.49856L17.5 9.76471C15.953 10.6579 14.047 10.6579 12.5 9.76471L6.84289 6.49856ZM25.9145 8.36747C26.3159 9.06266 26.0777 9.95159 25.3825 10.353L17.4999 14.9038C15.953 15.7969 14.047 15.7969 12.5001 14.9038L4.61753 10.353C3.92233 9.95159 3.68414 9.06266 4.08552 8.36747C4.48688 7.6723 5.3758 7.43413 6.07098 7.83549L12.5 11.5474C14.047 12.4406 15.953 12.4406 17.5 11.5474L23.929 7.83549C24.6242 7.43413 25.5131 7.6723 25.9145 8.36747Z" fill="#6D6D6D"/>
</svg>
