<svg width="53" height="38" viewBox="0 0 53 38" fill="none" xmlns="http://www.w3.org/2000/svg">
<g filter="url(#filter0_d_233_385)">
<path d="M40.5243 4.01037C40.3365 3.97875 40.1361 4.01868 39.9696 4.14072C38.8779 4.9335 35.8597 6.84406 32.6194 6.84406C30.0873 6.84406 27.3616 7.77135 26.0146 10.9376C24.4138 7.25822 21.2572 6.84406 19.4098 6.84406C16.1695 6.84406 13.1732 4.90249 12.0597 4.14072C11.6871 3.88582 11.2451 3.99821 11.0248 4.31552L10.1476 5.5797L26.0146 16.0517L41.8817 5.5797L41.0045 4.31552C40.887 4.14632 40.712 4.04218 40.5243 4.01037ZM8.26131 6.29513C8.05933 6.32287 7.88546 6.44826 7.76394 6.62339L6.91541 7.84745L26.0146 20.4537L45.1153 7.84889L44.2653 6.62339C44.0378 6.29582 43.5903 6.2099 43.2577 6.4298L26.0146 17.8104L8.77158 6.4298C8.66948 6.3624 8.56874 6.32102 8.47201 6.30216C8.3995 6.28829 8.32863 6.28681 8.26131 6.29513ZM4.73387 8.30471C4.33853 8.29916 4 8.63797 4 9.02276V11.9826C4 13.7553 5.22277 14.6997 5.76874 15.0872L19.8183 24.5444L24.6845 21.3337L5.13807 8.43362C5.00407 8.34514 4.86564 8.30637 4.73387 8.30471ZM47.2896 8.31021C47.1589 8.31185 47.0238 8.35019 46.8955 8.43506L10.1978 32.6512C9.58335 33.0514 9.87162 34.0057 10.6048 34H17.9449C18.0897 33.9994 18.2304 33.9559 18.3506 33.8752L46.2634 15.0884C46.8092 14.7009 48.0321 13.7565 48.0321 11.9838V9.04832C48.0321 8.63393 47.6818 8.30527 47.2896 8.31021ZM32.221 26.3101L27.329 29.6025L33.6772 33.8752C33.7989 33.957 33.942 34.0005 34.0886 34H41.423C42.1562 34.0055 42.4444 33.0514 41.8301 32.6512L32.221 26.3101Z" fill="url(#paint0_linear_233_385)"/>
</g>
<defs>
<filter id="filter0_d_233_385" x="0" y="0" width="52.0321" height="38" filterUnits="userSpaceOnUse" color-interpolation-filters="sRGB">
<feFlood flood-opacity="0" result="BackgroundImageFix"/>
<feColorMatrix in="SourceAlpha" type="matrix" values="0 0 0 0 0 0 0 0 0 0 0 0 0 0 0 0 0 0 127 0" result="hardAlpha"/>
<feOffset/>
<feGaussianBlur stdDeviation="2"/>
<feComposite in2="hardAlpha" operator="out"/>
<feColorMatrix type="matrix" values="0 0 0 0 0 0 0 0 0 0 0 0 0 0 0 0 0 0 0.25 0"/>
<feBlend mode="normal" in2="BackgroundImageFix" result="effect1_dropShadow_233_385"/>
<feBlend mode="normal" in="SourceGraphic" in2="effect1_dropShadow_233_385" result="shape"/>
</filter>
<linearGradient id="paint0_linear_233_385" x1="26.0161" y1="4" x2="26.0161" y2="34" gradientUnits="userSpaceOnUse">
<stop stop-color="#ECCAFF"/>
<stop offset="1" stop-color="#A5ADFF"/>
</linearGradient>
</defs>
</svg>
