<svg width="41" height="53" viewBox="0 0 41 53" fill="none" xmlns="http://www.w3.org/2000/svg">
<g filter="url(#filter0_d_233_392)">
<path d="M20.2972 23.6802C14.8468 23.6802 10.4408 19.2742 10.4408 13.8238C10.4408 8.40602 14.8468 4 20.2972 4C25.715 4 30.121 8.40602 30.121 13.8238C30.121 19.2742 25.715 23.6802 20.2972 23.6802ZM24.7033 9.41777L18.3064 11.8656L15.8586 18.2625L22.2555 15.8147L24.7033 9.41777ZM20.2972 14.8355C19.7424 14.8355 19.2855 14.3786 19.2855 13.8238C19.2855 13.3016 19.7424 12.8447 20.2972 12.8447C20.8194 12.8447 21.2764 13.3016 21.2764 13.8238C21.2764 14.3786 20.8194 14.8355 20.2972 14.8355Z" fill="url(#paint0_linear_233_392)"/>
<path d="M12.9724 36.4493H8.18345V47.2107H12.9724V36.4493Z" fill="url(#paint1_linear_233_392)"/>
<path d="M20.128 26.899C20.128 26.899 12.9721 29.9265 12.9721 35.2659H20.128V26.899Z" fill="url(#paint2_linear_233_392)"/>
<path d="M27.312 35.2659C27.312 29.8715 20.1286 26.899 20.1286 26.899V35.2659H27.312Z" fill="url(#paint3_linear_233_392)"/>
<path d="M16.5501 47.2107V41.2383C16.5501 39.2566 20.128 37.6603 20.128 37.6603V36.4493H12.9721V47.2107H16.5501Z" fill="url(#paint4_linear_233_392)"/>
<path d="M20.1286 36.4493V37.6603C20.1286 37.6603 23.734 39.2566 23.734 41.2383V47.2107H27.312V36.4493H20.1286Z" fill="url(#paint5_linear_233_392)"/>
<path d="M32.1005 36.4493H27.3116V47.2107H32.1005V36.4493Z" fill="url(#paint6_linear_233_392)"/>
<path d="M23.734 41.2382C23.734 39.2566 20.1286 37.6602 20.1286 37.6602V41.2382V41.8437H22.523V47.2106H23.734V41.2382Z" fill="url(#paint7_linear_233_392)"/>
<path d="M20.1283 37.6602C20.1283 37.6602 16.5503 39.2566 16.5503 41.2382V47.2106H17.7613V41.8437H20.1283V41.2382V37.6602Z" fill="url(#paint8_linear_233_392)"/>
<path d="M32.1005 47.211H27.3116V49H32.1005V47.211Z" fill="url(#paint9_linear_233_392)"/>
<path d="M12.9724 47.211H8.18345V49H12.9724V47.211Z" fill="url(#paint10_linear_233_392)"/>
<path d="M23.7064 47.211H22.5229V49H23.7064V47.211Z" fill="url(#paint11_linear_233_392)"/>
<path d="M17.7613 47.211H16.5503V48.422V49H17.7613V47.211Z" fill="url(#paint12_linear_233_392)"/>
<path d="M22.5227 41.8439H20.1282H17.7612V47.2109V48.9998H20.1282H22.5227V47.2109V41.8439Z" fill="url(#paint13_linear_233_392)"/>
<path d="M16.5501 47.211H12.9721V49H16.5501V48.422V47.211Z" fill="url(#paint14_linear_233_392)"/>
<path d="M27.3118 47.211H23.7338V49H27.3118V47.211Z" fill="url(#paint15_linear_233_392)"/>
<path d="M20.1556 35.2661H12.9721V36.4496H20.1556V35.2661Z" fill="url(#paint16_linear_233_392)"/>
<path d="M6.39467 31.6607H4.60569V47.211H6.39467V31.6607Z" fill="url(#paint17_linear_233_392)"/>
<path d="M6.39467 25.6881H4.60569V28.6881H6.39467V25.6881Z" fill="url(#paint18_linear_233_392)"/>
<path d="M8.18331 25.6881H6.39433V28.6881H8.18331V25.6881Z" fill="url(#paint19_linear_233_392)"/>
<path d="M6.39433 47.211H8.18331V36.4496V31.6607H6.39433V47.211Z" fill="url(#paint20_linear_233_392)"/>
<path d="M6.39467 14.3213H6.09192V14.0461L4.60569 24.5047H6.39467V14.3213Z" fill="url(#paint21_linear_233_392)"/>
<path d="M6.39448 30.4769V28.6879H4.6055H4V30.4769H6.39448Z" fill="url(#paint22_linear_233_392)"/>
<path d="M6.39467 47.211H4.60569V49H6.39467V47.211Z" fill="url(#paint23_linear_233_392)"/>
<path d="M8.18331 47.211H6.39433V49H8.18331V47.211Z" fill="url(#paint24_linear_233_392)"/>
<path d="M8.18346 31.6603L8.78896 30.4769V28.6879H8.18346H6.39448V30.4769H4L4.6055 31.6603H6.39448H8.18346Z" fill="url(#paint25_linear_233_392)"/>
<path d="M8.18331 24.5044H6.39433V25.6879H8.18331V24.5044Z" fill="url(#paint26_linear_233_392)"/>
<path d="M6.39467 24.5044H4.60569V25.6879H6.39467V24.5044Z" fill="url(#paint27_linear_233_392)"/>
<path d="M6.39443 14.3212V24.5047H8.18341L6.69718 14.046V9.80748C7.19259 9.66987 7.57791 9.20198 7.57791 8.65153H6.99993C6.99993 8.9818 6.7247 9.25703 6.39443 9.25703C6.06416 9.25703 5.78893 8.9818 5.78893 8.65153C5.78893 8.32125 6.06416 8.04603 6.39443 8.04603V7.46805C5.73388 7.46805 5.18343 7.99098 5.18343 8.65153C5.18343 9.20198 5.56874 9.66987 6.09168 9.80748V14.046V14.3212H6.39443Z" fill="url(#paint28_linear_233_392)"/>
<path d="M33.8897 47.211V31.6607H32.1007V36.4496V47.211H33.8897Z" fill="url(#paint29_linear_233_392)"/>
<path d="M33.8897 25.6881H32.1007V28.6881H33.8897V25.6881Z" fill="url(#paint30_linear_233_392)"/>
<path d="M35.6788 31.6607H33.8898V47.211H35.6788V31.6607Z" fill="url(#paint31_linear_233_392)"/>
<path d="M35.6788 25.6881H33.8898V28.6881H35.6788V25.6881Z" fill="url(#paint32_linear_233_392)"/>
<path d="M33.8897 14.3213H33.5869V14.0461L32.1007 24.5047H33.8897V14.3213Z" fill="url(#paint33_linear_233_392)"/>
<path d="M33.8895 30.4769V28.6879H32.1005H31.495V30.4769H33.8895Z" fill="url(#paint34_linear_233_392)"/>
<path d="M33.8897 47.211H32.1007V49H33.8897V47.211Z" fill="url(#paint35_linear_233_392)"/>
<path d="M35.6788 47.211H33.8898V49H35.6788V47.211Z" fill="url(#paint36_linear_233_392)"/>
<path d="M35.6785 28.6879H33.8895V30.4769H31.495L32.1005 31.6603H33.8895H35.6785L36.284 30.4769V28.6879H35.6785Z" fill="url(#paint37_linear_233_392)"/>
<path d="M35.6788 24.5044H33.8898V25.6879H35.6788V24.5044Z" fill="url(#paint38_linear_233_392)"/>
<path d="M33.8897 24.5044H32.1007V25.6879H33.8897V24.5044Z" fill="url(#paint39_linear_233_392)"/>
<path d="M33.8894 14.3212V24.5047H35.6784L34.1921 14.046V9.80748C34.7151 9.66987 35.1004 9.20198 35.1004 8.65153H34.4949C34.4949 8.9818 34.2197 9.25703 33.8894 9.25703C33.5591 9.25703 33.2839 8.9818 33.2839 8.65153C33.2839 8.32125 33.5591 8.04603 33.8894 8.04603V7.46805C33.2288 7.46805 32.7059 7.99098 32.7059 8.65153C32.7059 9.20198 33.0912 9.66987 33.5866 9.80748V14.046V14.3212H33.8894Z" fill="url(#paint40_linear_233_392)"/>
<path d="M27.312 35.2661H20.1286V36.4496H27.312V35.2661Z" fill="url(#paint41_linear_233_392)"/>
</g>
<defs>
<filter id="filter0_d_233_392" x="0" y="0" width="40.284" height="53" filterUnits="userSpaceOnUse" color-interpolation-filters="sRGB">
<feFlood flood-opacity="0" result="BackgroundImageFix"/>
<feColorMatrix in="SourceAlpha" type="matrix" values="0 0 0 0 0 0 0 0 0 0 0 0 0 0 0 0 0 0 127 0" result="hardAlpha"/>
<feOffset/>
<feGaussianBlur stdDeviation="2"/>
<feComposite in2="hardAlpha" operator="out"/>
<feColorMatrix type="matrix" values="0 0 0 0 0 0 0 0 0 0 0 0 0 0 0 0 0 0 0.25 0"/>
<feBlend mode="normal" in2="BackgroundImageFix" result="effect1_dropShadow_233_392"/>
<feBlend mode="normal" in="SourceGraphic" in2="effect1_dropShadow_233_392" result="shape"/>
</filter>
<linearGradient id="paint0_linear_233_392" x1="20.2809" y1="4" x2="20.2809" y2="23.6802" gradientUnits="userSpaceOnUse">
<stop stop-color="#ECCAFF"/>
<stop offset="1" stop-color="#A5ADFF"/>
</linearGradient>
<linearGradient id="paint1_linear_233_392" x1="10.5779" y1="36.4493" x2="10.5779" y2="47.2107" gradientUnits="userSpaceOnUse">
<stop stop-color="#ECCAFF"/>
<stop offset="1" stop-color="#A5ADFF"/>
</linearGradient>
<linearGradient id="paint2_linear_233_392" x1="16.5501" y1="26.899" x2="16.5501" y2="35.2659" gradientUnits="userSpaceOnUse">
<stop stop-color="#ECCAFF"/>
<stop offset="1" stop-color="#A5ADFF"/>
</linearGradient>
<linearGradient id="paint3_linear_233_392" x1="23.7203" y1="26.899" x2="23.7203" y2="35.2659" gradientUnits="userSpaceOnUse">
<stop stop-color="#ECCAFF"/>
<stop offset="1" stop-color="#A5ADFF"/>
</linearGradient>
<linearGradient id="paint4_linear_233_392" x1="16.5501" y1="36.4493" x2="16.5501" y2="47.2107" gradientUnits="userSpaceOnUse">
<stop stop-color="#ECCAFF"/>
<stop offset="1" stop-color="#A5ADFF"/>
</linearGradient>
<linearGradient id="paint5_linear_233_392" x1="23.7203" y1="36.4493" x2="23.7203" y2="47.2107" gradientUnits="userSpaceOnUse">
<stop stop-color="#ECCAFF"/>
<stop offset="1" stop-color="#A5ADFF"/>
</linearGradient>
<linearGradient id="paint6_linear_233_392" x1="29.706" y1="36.4493" x2="29.706" y2="47.2107" gradientUnits="userSpaceOnUse">
<stop stop-color="#ECCAFF"/>
<stop offset="1" stop-color="#A5ADFF"/>
</linearGradient>
<linearGradient id="paint7_linear_233_392" x1="21.9313" y1="37.6602" x2="21.9313" y2="47.2106" gradientUnits="userSpaceOnUse">
<stop stop-color="#ECCAFF"/>
<stop offset="1" stop-color="#A5ADFF"/>
</linearGradient>
<linearGradient id="paint8_linear_233_392" x1="18.3393" y1="37.6602" x2="18.3393" y2="47.2106" gradientUnits="userSpaceOnUse">
<stop stop-color="#ECCAFF"/>
<stop offset="1" stop-color="#A5ADFF"/>
</linearGradient>
<linearGradient id="paint9_linear_233_392" x1="29.706" y1="47.211" x2="29.706" y2="49" gradientUnits="userSpaceOnUse">
<stop stop-color="#ECCAFF"/>
<stop offset="1" stop-color="#A5ADFF"/>
</linearGradient>
<linearGradient id="paint10_linear_233_392" x1="10.5779" y1="47.211" x2="10.5779" y2="49" gradientUnits="userSpaceOnUse">
<stop stop-color="#ECCAFF"/>
<stop offset="1" stop-color="#A5ADFF"/>
</linearGradient>
<linearGradient id="paint11_linear_233_392" x1="23.1146" y1="47.211" x2="23.1146" y2="49" gradientUnits="userSpaceOnUse">
<stop stop-color="#ECCAFF"/>
<stop offset="1" stop-color="#A5ADFF"/>
</linearGradient>
<linearGradient id="paint12_linear_233_392" x1="17.1558" y1="47.211" x2="17.1558" y2="49" gradientUnits="userSpaceOnUse">
<stop stop-color="#ECCAFF"/>
<stop offset="1" stop-color="#A5ADFF"/>
</linearGradient>
<linearGradient id="paint13_linear_233_392" x1="20.142" y1="41.8439" x2="20.142" y2="48.9998" gradientUnits="userSpaceOnUse">
<stop stop-color="#ECCAFF"/>
<stop offset="1" stop-color="#A5ADFF"/>
</linearGradient>
<linearGradient id="paint14_linear_233_392" x1="14.7611" y1="47.211" x2="14.7611" y2="49" gradientUnits="userSpaceOnUse">
<stop stop-color="#ECCAFF"/>
<stop offset="1" stop-color="#A5ADFF"/>
</linearGradient>
<linearGradient id="paint15_linear_233_392" x1="25.5228" y1="47.211" x2="25.5228" y2="49" gradientUnits="userSpaceOnUse">
<stop stop-color="#ECCAFF"/>
<stop offset="1" stop-color="#A5ADFF"/>
</linearGradient>
<linearGradient id="paint16_linear_233_392" x1="16.5638" y1="35.2661" x2="16.5638" y2="36.4496" gradientUnits="userSpaceOnUse">
<stop stop-color="#ECCAFF"/>
<stop offset="1" stop-color="#A5ADFF"/>
</linearGradient>
<linearGradient id="paint17_linear_233_392" x1="5.50018" y1="31.6607" x2="5.50018" y2="47.211" gradientUnits="userSpaceOnUse">
<stop stop-color="#ECCAFF"/>
<stop offset="1" stop-color="#A5ADFF"/>
</linearGradient>
<linearGradient id="paint18_linear_233_392" x1="5.50018" y1="25.6881" x2="5.50018" y2="28.6881" gradientUnits="userSpaceOnUse">
<stop stop-color="#ECCAFF"/>
<stop offset="1" stop-color="#A5ADFF"/>
</linearGradient>
<linearGradient id="paint19_linear_233_392" x1="7.28882" y1="25.6881" x2="7.28882" y2="28.6881" gradientUnits="userSpaceOnUse">
<stop stop-color="#ECCAFF"/>
<stop offset="1" stop-color="#A5ADFF"/>
</linearGradient>
<linearGradient id="paint20_linear_233_392" x1="7.28882" y1="31.6607" x2="7.28882" y2="47.211" gradientUnits="userSpaceOnUse">
<stop stop-color="#ECCAFF"/>
<stop offset="1" stop-color="#A5ADFF"/>
</linearGradient>
<linearGradient id="paint21_linear_233_392" x1="5.50018" y1="14.0461" x2="5.50018" y2="24.5047" gradientUnits="userSpaceOnUse">
<stop stop-color="#ECCAFF"/>
<stop offset="1" stop-color="#A5ADFF"/>
</linearGradient>
<linearGradient id="paint22_linear_233_392" x1="5.19724" y1="28.6879" x2="5.19724" y2="30.4769" gradientUnits="userSpaceOnUse">
<stop stop-color="#ECCAFF"/>
<stop offset="1" stop-color="#A5ADFF"/>
</linearGradient>
<linearGradient id="paint23_linear_233_392" x1="5.50018" y1="47.211" x2="5.50018" y2="49" gradientUnits="userSpaceOnUse">
<stop stop-color="#ECCAFF"/>
<stop offset="1" stop-color="#A5ADFF"/>
</linearGradient>
<linearGradient id="paint24_linear_233_392" x1="7.28882" y1="47.211" x2="7.28882" y2="49" gradientUnits="userSpaceOnUse">
<stop stop-color="#ECCAFF"/>
<stop offset="1" stop-color="#A5ADFF"/>
</linearGradient>
<linearGradient id="paint25_linear_233_392" x1="6.39448" y1="28.6879" x2="6.39448" y2="31.6603" gradientUnits="userSpaceOnUse">
<stop stop-color="#ECCAFF"/>
<stop offset="1" stop-color="#A5ADFF"/>
</linearGradient>
<linearGradient id="paint26_linear_233_392" x1="7.28882" y1="24.5044" x2="7.28882" y2="25.6879" gradientUnits="userSpaceOnUse">
<stop stop-color="#ECCAFF"/>
<stop offset="1" stop-color="#A5ADFF"/>
</linearGradient>
<linearGradient id="paint27_linear_233_392" x1="5.50018" y1="24.5044" x2="5.50018" y2="25.6879" gradientUnits="userSpaceOnUse">
<stop stop-color="#ECCAFF"/>
<stop offset="1" stop-color="#A5ADFF"/>
</linearGradient>
<linearGradient id="paint28_linear_233_392" x1="6.68342" y1="7.46805" x2="6.68342" y2="24.5047" gradientUnits="userSpaceOnUse">
<stop stop-color="#ECCAFF"/>
<stop offset="1" stop-color="#A5ADFF"/>
</linearGradient>
<linearGradient id="paint29_linear_233_392" x1="32.9952" y1="31.6607" x2="32.9952" y2="47.211" gradientUnits="userSpaceOnUse">
<stop stop-color="#ECCAFF"/>
<stop offset="1" stop-color="#A5ADFF"/>
</linearGradient>
<linearGradient id="paint30_linear_233_392" x1="32.9952" y1="25.6881" x2="32.9952" y2="28.6881" gradientUnits="userSpaceOnUse">
<stop stop-color="#ECCAFF"/>
<stop offset="1" stop-color="#A5ADFF"/>
</linearGradient>
<linearGradient id="paint31_linear_233_392" x1="34.7843" y1="31.6607" x2="34.7843" y2="47.211" gradientUnits="userSpaceOnUse">
<stop stop-color="#ECCAFF"/>
<stop offset="1" stop-color="#A5ADFF"/>
</linearGradient>
<linearGradient id="paint32_linear_233_392" x1="34.7843" y1="25.6881" x2="34.7843" y2="28.6881" gradientUnits="userSpaceOnUse">
<stop stop-color="#ECCAFF"/>
<stop offset="1" stop-color="#A5ADFF"/>
</linearGradient>
<linearGradient id="paint33_linear_233_392" x1="32.9952" y1="14.0461" x2="32.9952" y2="24.5047" gradientUnits="userSpaceOnUse">
<stop stop-color="#ECCAFF"/>
<stop offset="1" stop-color="#A5ADFF"/>
</linearGradient>
<linearGradient id="paint34_linear_233_392" x1="32.6923" y1="28.6879" x2="32.6923" y2="30.4769" gradientUnits="userSpaceOnUse">
<stop stop-color="#ECCAFF"/>
<stop offset="1" stop-color="#A5ADFF"/>
</linearGradient>
<linearGradient id="paint35_linear_233_392" x1="32.9952" y1="47.211" x2="32.9952" y2="49" gradientUnits="userSpaceOnUse">
<stop stop-color="#ECCAFF"/>
<stop offset="1" stop-color="#A5ADFF"/>
</linearGradient>
<linearGradient id="paint36_linear_233_392" x1="34.7843" y1="47.211" x2="34.7843" y2="49" gradientUnits="userSpaceOnUse">
<stop stop-color="#ECCAFF"/>
<stop offset="1" stop-color="#A5ADFF"/>
</linearGradient>
<linearGradient id="paint37_linear_233_392" x1="33.8895" y1="28.6879" x2="33.8895" y2="31.6603" gradientUnits="userSpaceOnUse">
<stop stop-color="#ECCAFF"/>
<stop offset="1" stop-color="#A5ADFF"/>
</linearGradient>
<linearGradient id="paint38_linear_233_392" x1="34.7843" y1="24.5044" x2="34.7843" y2="25.6879" gradientUnits="userSpaceOnUse">
<stop stop-color="#ECCAFF"/>
<stop offset="1" stop-color="#A5ADFF"/>
</linearGradient>
<linearGradient id="paint39_linear_233_392" x1="32.9952" y1="24.5044" x2="32.9952" y2="25.6879" gradientUnits="userSpaceOnUse">
<stop stop-color="#ECCAFF"/>
<stop offset="1" stop-color="#A5ADFF"/>
</linearGradient>
<linearGradient id="paint40_linear_233_392" x1="34.1921" y1="7.46805" x2="34.1921" y2="24.5047" gradientUnits="userSpaceOnUse">
<stop stop-color="#ECCAFF"/>
<stop offset="1" stop-color="#A5ADFF"/>
</linearGradient>
<linearGradient id="paint41_linear_233_392" x1="23.7203" y1="35.2661" x2="23.7203" y2="36.4496" gradientUnits="userSpaceOnUse">
<stop stop-color="#ECCAFF"/>
<stop offset="1" stop-color="#A5ADFF"/>
</linearGradient>
</defs>
</svg>
