<svg width="26" height="34" viewBox="0 0 26 34" fill="none" xmlns="http://www.w3.org/2000/svg">
<path fill-rule="evenodd" clip-rule="evenodd" d="M13.0519 10.5239C13.1794 11.2791 13.5391 11.9824 14.0875 12.5314C14.6366 13.0799 15.3399 13.4396 16.0951 13.5671V26.052C15.3399 26.1796 14.6366 26.5392 14.0875 27.0877C13.5391 27.6368 13.1794 28.34 13.0519 29.0953H6.75741C6.62988 28.34 6.27022 27.6368 5.72112 27.0877C5.17265 26.5392 4.46941 26.1796 3.71417 26.052V13.5671C4.46941 13.4396 5.17265 13.0799 5.72112 12.5314C6.27022 11.9824 6.62988 11.2791 6.75741 10.5239H13.0519ZM6.37669 16.2816C6.22874 16.3182 6.10741 16.3819 6.00588 16.4605C5.84803 16.5843 5.73165 16.7521 5.66107 16.9638C5.58493 17.1916 5.57131 17.4937 5.57131 17.7977C5.57131 18.3065 5.3856 18.5938 5.24569 18.8494C5.07484 19.1627 4.95227 19.4536 4.95227 19.8096C4.95227 20.1655 5.07484 20.4565 5.24569 20.7697C5.3856 21.0254 5.57131 21.3126 5.57131 21.8215C5.57131 22.1254 5.58493 22.4275 5.66107 22.6553C5.73165 22.8671 5.84803 23.0354 6.00588 23.1586C6.10741 23.2379 6.22874 23.3016 6.37669 23.3375C6.4126 23.4855 6.47636 23.6068 6.5556 23.7083C6.67879 23.8662 6.84717 23.9826 7.05888 24.0531C7.28669 24.1293 7.58878 24.1429 7.89274 24.1429C8.40159 24.1429 8.68883 24.3286 8.9445 24.4685C9.25773 24.6394 9.54869 24.762 9.90464 24.762C10.2606 24.762 10.5515 24.6394 10.8648 24.4685C11.1204 24.3286 11.4077 24.1429 11.9165 24.1429C12.2205 24.1429 12.5226 24.1293 12.7504 24.0531C12.9621 23.9826 13.1299 23.8662 13.2537 23.7083C13.3323 23.6068 13.3961 23.4855 13.4326 23.3375C13.5805 23.3016 13.7019 23.2379 13.8034 23.1586C13.9613 23.0354 14.0776 22.8671 14.1482 22.6553C14.2243 22.4275 14.238 22.1254 14.238 21.8215C14.238 21.3126 14.4237 21.0254 14.5636 20.7697C14.7344 20.4565 14.857 20.1655 14.857 19.8096C14.857 19.4536 14.7344 19.1627 14.5636 18.8494C14.4237 18.5938 14.238 18.3065 14.238 17.7977C14.238 17.4937 14.2243 17.1916 14.1482 16.9638C14.0776 16.7521 13.9613 16.5843 13.8034 16.4605C13.7019 16.3819 13.5805 16.3182 13.4326 16.2816C13.3961 16.1337 13.3323 16.0123 13.2537 15.9108C13.1299 15.753 12.9621 15.6366 12.7504 15.566C12.5226 15.4899 12.2205 15.4763 11.9165 15.4763C11.4077 15.4763 11.1204 15.2905 10.8648 15.1506C10.5515 14.9798 10.2606 14.8572 9.90464 14.8572C9.54869 14.8572 9.25773 14.9798 8.9445 15.1506C8.68883 15.2905 8.40159 15.4763 7.89274 15.4763C7.58878 15.4763 7.28669 15.4899 7.05888 15.566C6.84717 15.6366 6.67879 15.753 6.5556 15.9108C6.47636 16.0123 6.4126 16.1337 6.37669 16.2816Z" fill="url(#paint0_linear_233_440)"/>
<path fill-rule="evenodd" clip-rule="evenodd" d="M6.82504 22.1308C6.81762 22.0361 6.80957 21.9098 6.80957 21.8213C6.80957 21.1465 6.62014 20.7113 6.427 20.3498C6.32424 20.1567 6.19052 20.0149 6.19052 19.8094C6.19052 19.6038 6.32424 19.4621 6.427 19.2689C6.62014 18.9074 6.80957 18.4722 6.80957 17.7975C6.80957 17.7089 6.81762 17.5827 6.82504 17.4879H7.58338V16.7296C7.67809 16.7222 7.80438 16.7141 7.8929 16.7141C8.56766 16.7141 9.00285 16.5247 9.36437 16.3316C9.55752 16.2288 9.69928 16.0951 9.9048 16.0951C10.1103 16.0951 10.2521 16.2288 10.4452 16.3316C10.8068 16.5247 11.2419 16.7141 11.9167 16.7141C12.0052 16.7141 12.1315 16.7222 12.2262 16.7296V17.4879H12.9846C12.992 17.5827 13 17.7089 13 17.7975C13 18.4722 13.1895 18.9074 13.3826 19.2689C13.4854 19.4621 13.6191 19.6038 13.6191 19.8094C13.6191 20.0149 13.4854 20.1567 13.3826 20.3498C13.1895 20.7113 13 21.1465 13 21.8213C13 21.9098 12.992 22.0361 12.9846 22.1308H12.2262V22.8891C12.1315 22.8966 12.0052 22.9046 11.9167 22.9046C11.2419 22.9046 10.8068 23.094 10.4452 23.2872C10.2521 23.3899 10.1103 23.5237 9.9048 23.5237C9.69928 23.5237 9.55752 23.3899 9.36437 23.2872C9.00285 23.094 8.56766 22.9046 7.8929 22.9046C7.80438 22.9046 7.67809 22.8966 7.58338 22.8891V22.1308H6.82504Z" fill="url(#paint1_linear_233_440)"/>
<path fill-rule="evenodd" clip-rule="evenodd" d="M0 6.1904H19.8095V33.4285H0V6.1904ZM14.2381 9.90468V9.28563H5.57142V9.90468C5.57142 10.5615 5.31018 11.1911 4.8459 11.6553C4.38161 12.1202 3.75204 12.3809 3.09523 12.3809H2.47619V27.238H3.09523C3.75204 27.238 4.38161 27.4986 4.8459 27.9635C5.31018 28.4278 5.57142 29.0574 5.57142 29.7142V30.3332H14.2381V29.7142C14.2381 29.0574 14.4987 28.4278 14.9636 27.9635C15.4279 27.4986 16.0575 27.238 16.7143 27.238H17.3333V12.3809H16.7143C16.0575 12.3809 15.4279 12.1202 14.9636 11.6553C14.4987 11.1911 14.2381 10.5615 14.2381 9.90468Z" fill="url(#paint2_linear_233_440)"/>
<path fill-rule="evenodd" clip-rule="evenodd" d="M3.09515 3.09531H22.9046V30.3334H21.0475V4.95245H3.09515V3.09531Z" fill="url(#paint3_linear_233_440)"/>
<path fill-rule="evenodd" clip-rule="evenodd" d="M24.1429 27.2381V1.85714H6.19052V0H26V27.2381H24.1429Z" fill="url(#paint4_linear_233_440)"/>
<defs>
<linearGradient id="paint0_linear_233_440" x1="9.90464" y1="10.5239" x2="9.90464" y2="29.0953" gradientUnits="userSpaceOnUse">
<stop stop-color="#ECCAFF"/>
<stop offset="1" stop-color="#A5ADFF"/>
</linearGradient>
<linearGradient id="paint1_linear_233_440" x1="9.9048" y1="16.0951" x2="9.9048" y2="23.5237" gradientUnits="userSpaceOnUse">
<stop stop-color="#ECCAFF"/>
<stop offset="1" stop-color="#A5ADFF"/>
</linearGradient>
<linearGradient id="paint2_linear_233_440" x1="9.90475" y1="6.1904" x2="9.90475" y2="33.4285" gradientUnits="userSpaceOnUse">
<stop stop-color="#ECCAFF"/>
<stop offset="1" stop-color="#A5ADFF"/>
</linearGradient>
<linearGradient id="paint3_linear_233_440" x1="12.9999" y1="3.09531" x2="12.9999" y2="30.3334" gradientUnits="userSpaceOnUse">
<stop stop-color="#ECCAFF"/>
<stop offset="1" stop-color="#A5ADFF"/>
</linearGradient>
<linearGradient id="paint4_linear_233_440" x1="16.0953" y1="0" x2="16.0953" y2="27.2381" gradientUnits="userSpaceOnUse">
<stop stop-color="#ECCAFF"/>
<stop offset="1" stop-color="#A5ADFF"/>
</linearGradient>
</defs>
</svg>
