<svg width="10" height="10" viewBox="0 0 10 10" fill="none" xmlns="http://www.w3.org/2000/svg">
<path fill-rule="evenodd" clip-rule="evenodd" d="M7.07031 2.92989L7.27332 3.68753L6.31267 2.72689L7.07031 2.92989ZM7.27325 6.31254L6.31256 7.27323L7.07023 7.07021L7.27325 6.31254ZM3.6877 7.27348L2.72672 6.31251L2.9298 7.0704L3.6877 7.27348ZM2.72665 3.68756L3.68758 2.72664L2.92972 2.9297L2.72665 3.68756ZM5.70711 0.707107L5 0L4.29289 0.707107L3.94327 1.05673L4.99966 1.33979L6.05659 1.05659L5.70711 0.707107ZM8.66024 4.99991L8.94335 3.94335L9.29289 4.29289L10 5L9.29289 5.70711L8.94339 6.05661L8.66024 4.99991ZM4.99966 8.6603L6.05652 8.94348L5.70711 9.29289L5 10L4.29289 9.29289L3.94334 8.94334L4.99966 8.6603ZM1.33973 4.99991L1.0566 6.0566L0.707107 5.70711L0 5L0.707107 4.29289L1.05663 3.94337L1.33973 4.99991Z" fill="#8E0091"/>
<rect x="3.53558" y="5.08585" width="2.12132" height="2.12132" transform="rotate(-45 3.53558 5.08585)" fill="#8E0091"/>
</svg>
